<svg xmlns="http://www.w3.org/2000/svg" xmlns:xlink="http://www.w3.org/1999/xlink" width="800" zoomAndPan="magnify" viewBox="0 0 600 449.999984" height="600" preserveAspectRatio="xMidYMid meet" version="1.0"><defs><g/><clipPath id="436d0bd38d"><path d="M 209.746094 84.488281 L 390.496094 84.488281 L 390.496094 304.238281 L 209.746094 304.238281 Z M 209.746094 84.488281 " clip-rule="nonzero"/></clipPath></defs><g clip-path="url(#436d0bd38d)"><path fill="#ffffff" d="M 222.5 154.648438 L 283.496094 236.910156 L 221.023438 170.894531 L 221.023438 246.65625 L 260.601562 269.402344 L 282.902344 282.398438 L 299.148438 304.253906 C 298.558594 304.105469 297.820312 303.960938 297.230469 303.515625 L 254.992188 279.148438 L 212.605469 254.78125 C 210.835938 253.746094 209.800781 251.828125 209.800781 249.90625 L 209.800781 152.136719 C 209.800781 149.921875 211.128906 147.855469 213.050781 146.96875 L 214.527344 146.230469 Z M 361.175781 132.050781 L 361.175781 95.722656 L 352.757812 95.722656 L 352.757812 120.238281 L 341.386719 113.886719 L 341.386719 84.496094 L 372.402344 84.496094 L 372.402344 138.550781 L 387.613281 147.265625 C 389.382812 148.296875 390.417969 150.21875 390.417969 152.136719 L 390.417969 249.90625 C 390.417969 252.121094 389.089844 254.042969 387.019531 254.929688 L 345.226562 279.148438 L 311.703125 298.496094 L 310.964844 297.757812 L 310.519531 299.234375 L 304.320312 290.816406 L 303.726562 290.222656 L 303.875 290.078125 L 242.734375 207.816406 L 314.507812 283.875 L 339.613281 269.402344 L 379.046875 246.65625 L 379.046875 155.386719 L 361.175781 145.050781 Z M 302.988281 98.378906 L 345.226562 122.894531 L 352.757812 127.179688 L 352.757812 140.175781 L 339.613281 132.492188 L 300.035156 109.75 L 260.601562 132.492188 L 232.988281 148.445312 L 226.195312 139.4375 L 254.992188 122.894531 L 297.230469 98.378906 C 299.148438 97.34375 301.214844 97.492188 302.988281 98.378906 " fill-opacity="1" fill-rule="nonzero"/></g><path fill="#ffffff" d="M 321.597656 135.742188 L 321.597656 150.070312 C 321.597656 151.25 320.5625 152.285156 319.382812 152.285156 L 305.054688 152.285156 C 303.875 152.285156 302.839844 151.25 302.839844 150.070312 L 302.839844 135.742188 C 302.839844 134.5625 303.875 133.527344 305.054688 133.527344 L 319.382812 133.527344 C 320.5625 133.527344 321.597656 134.5625 321.597656 135.742188 " fill-opacity="1" fill-rule="evenodd"/><path fill="#ffffff" d="M 321.597656 161.886719 L 321.597656 176.210938 C 321.597656 177.394531 320.5625 178.425781 319.382812 178.425781 L 305.054688 178.425781 C 303.875 178.425781 302.839844 177.394531 302.839844 176.210938 L 302.839844 161.886719 C 302.839844 160.554688 303.875 159.671875 305.054688 159.671875 L 319.382812 159.671875 C 320.5625 159.671875 321.597656 160.554688 321.597656 161.886719 " fill-opacity="1" fill-rule="evenodd"/><path fill="#ffffff" d="M 297.375 135.742188 L 297.375 150.070312 C 297.375 151.25 296.34375 152.285156 295.160156 152.285156 L 280.835938 152.285156 C 279.507812 152.285156 278.621094 151.25 278.621094 150.070312 L 278.621094 135.742188 C 278.621094 134.5625 279.507812 133.527344 280.835938 133.527344 L 295.160156 133.527344 C 296.34375 133.527344 297.375 134.5625 297.375 135.742188 " fill-opacity="1" fill-rule="evenodd"/><path fill="#ffffff" d="M 297.375 161.886719 L 297.375 176.210938 C 297.375 177.394531 296.34375 178.425781 295.160156 178.425781 L 280.835938 178.425781 C 279.507812 178.425781 278.621094 177.394531 278.621094 176.210938 L 278.621094 161.886719 C 278.621094 160.554688 279.507812 159.671875 280.835938 159.671875 L 295.160156 159.671875 C 296.34375 159.671875 297.375 160.554688 297.375 161.886719 " fill-opacity="1" fill-rule="evenodd"/><g fill="#ffffff" fill-opacity="1"><g transform="translate(215.321888, 327.613304)"><g><path d="M 21.222656 -10.523438 C 20.246094 -11.730469 18.90625 -12.503906 17.289062 -12.863281 C 17.46875 -13.066406 17.621094 -13.273438 17.777344 -13.453125 C 19.421875 -15.667969 21.789062 -19.808594 19.214844 -22.894531 C 17.519531 -24.953125 14.046875 -25.828125 10.546875 -25.3125 C 10.546875 -25.363281 10.574219 -25.390625 10.574219 -25.441406 C 10.625 -25.699219 10.445312 -25.957031 10.160156 -26.007812 C 9.902344 -26.058594 9.648438 -25.878906 9.59375 -25.597656 C 9.570312 -25.441406 9.542969 -25.289062 9.519531 -25.132812 C 8.515625 -24.902344 7.539062 -24.566406 6.585938 -24.105469 C 2.367188 -22.046875 0.539062 -18.238281 1.542969 -13.632812 C 1.59375 -13.378906 1.878906 -13.195312 2.136719 -13.273438 C 2.390625 -13.324219 2.574219 -13.582031 2.519531 -13.867188 C 1.59375 -17.957031 3.242188 -21.378906 7.023438 -23.230469 C 7.769531 -23.589844 8.515625 -23.847656 9.3125 -24.054688 C 8.796875 -21.429688 8.050781 -17.722656 7.203125 -13.558594 C 6.84375 -11.757812 6.507812 -10.085938 6.175781 -8.515625 C 5.839844 -7.976562 5.582031 -7.382812 5.429688 -6.765625 C 5.300781 -6.277344 5.480469 -5.992188 5.632812 -5.839844 C 1.75 13.582031 1.957031 14.535156 2.777344 14.792969 C 2.828125 14.816406 2.90625 14.816406 2.957031 14.816406 C 3.445312 14.816406 3.808594 14.175781 4.347656 12.863281 C 4.449219 12.605469 4.320312 12.324219 4.066406 12.21875 C 3.808594 12.117188 3.523438 12.21875 3.421875 12.476562 C 3.394531 12.578125 3.34375 12.65625 3.320312 12.734375 C 3.601562 9.621094 5.121094 1.828125 6.609375 -5.632812 C 8.773438 -5.890625 13.582031 -8.976562 16.515625 -11.988281 C 18.160156 -11.78125 19.5 -11.085938 20.453125 -9.902344 C 22.226562 -7.691406 22.378906 -4.117188 20.835938 -0.589844 C 18.46875 4.835938 13.066406 8.359375 6.355469 8.847656 C 6.070312 8.875 5.867188 9.105469 5.890625 9.390625 C 5.917969 9.648438 6.121094 9.851562 6.378906 9.851562 C 6.40625 9.851562 6.40625 9.851562 6.429688 9.851562 C 13.503906 9.339844 19.242188 5.582031 21.761719 -0.207031 C 23.433594 -4.066406 23.230469 -8.027344 21.222656 -10.523438 Z M 6.816406 -6.664062 C 6.921875 -7.175781 7.023438 -7.667969 7.125 -8.179688 C 8.4375 -10.238281 10.90625 -11.394531 13.09375 -11.832031 C 13.839844 -11.960938 14.535156 -12.039062 15.203125 -12.066406 C 12.269531 -9.261719 8.335938 -7.074219 6.816406 -6.664062 Z M 16.128906 -13.015625 C 15.125 -13.09375 14.046875 -13.015625 12.886719 -12.785156 C 10.726562 -12.375 8.875 -11.449219 7.511719 -10.160156 C 7.742188 -11.265625 7.976562 -12.347656 8.179688 -13.351562 C 9.082031 -17.75 9.851562 -21.632812 10.367188 -24.285156 C 13.609375 -24.824219 16.925781 -24.105469 18.445312 -22.277344 C 20.039062 -20.347656 19.5 -17.441406 16.976562 -14.046875 C 16.722656 -13.710938 16.4375 -13.351562 16.128906 -13.015625 Z M 16.128906 -13.015625 "/></g></g></g><g fill="#ffffff" fill-opacity="1"><g transform="translate(240.50445, 327.613304)"><g><path d="M 8.695312 -5.738281 C 8.464844 -5.890625 8.15625 -5.839844 8 -5.609375 C 6.070312 -2.90625 4.5 -1.210938 2.957031 -0.101562 C 2.1875 0.4375 1.441406 0.539062 0.953125 0.179688 C 0.644531 -0.0507812 -0.308594 -1.082031 0.796875 -4.683594 C 3.292969 -6.738281 4.65625 -8.695312 4.296875 -9.722656 C 4.167969 -10.03125 3.859375 -10.238281 3.523438 -10.238281 C 2.496094 -10.210938 0.925781 -8.4375 -0.101562 -5.121094 C -1.363281 -1.027344 -0.335938 0.464844 0.386719 0.976562 C 0.746094 1.261719 1.15625 1.390625 1.621094 1.390625 C 2.210938 1.390625 2.882812 1.15625 3.523438 0.695312 C 5.171875 -0.488281 6.792969 -2.238281 8.796875 -5.042969 C 8.953125 -5.273438 8.902344 -5.582031 8.695312 -5.738281 Z M 3.320312 -9.15625 C 3.214844 -8.746094 2.777344 -7.921875 1.570312 -6.6875 C 2.238281 -8.179688 2.957031 -8.902344 3.320312 -9.15625 Z M 3.320312 -9.15625 "/></g></g></g><g fill="#ffffff" fill-opacity="1"><g transform="translate(247.989766, 327.613304)"><g><path d="M 11.449219 -5.890625 C 11.242188 -6.070312 10.933594 -6.046875 10.753906 -5.839844 C 8.722656 -3.5 5.53125 0.230469 5.015625 0.898438 C 4.863281 1.082031 4.707031 1.285156 4.554688 1.492188 C 4.347656 0.976562 4.089844 0.488281 3.753906 -0.0273438 C 2.519531 -1.929688 1.414062 -3.730469 1.464844 -4.992188 C 1.519531 -5.992188 2.03125 -6.867188 2.882812 -7.382812 C 3.574219 -7.792969 4.347656 -7.871094 4.9375 -7.589844 C 5.171875 -7.484375 5.480469 -7.589844 5.582031 -7.847656 C 5.710938 -8.078125 5.609375 -8.386719 5.351562 -8.488281 C 4.476562 -8.902344 3.34375 -8.796875 2.367188 -8.230469 C 1.234375 -7.539062 0.566406 -6.378906 0.488281 -5.042969 C 0.410156 -3.472656 1.542969 -1.59375 2.933594 0.515625 C 3.371094 1.183594 3.652344 1.828125 3.832031 2.445312 C 1.828125 5.171875 -0.335938 8.667969 0.773438 9.75 C 0.953125 9.929688 1.183594 10.007812 1.414062 10.007812 C 1.828125 10.007812 2.289062 9.800781 2.777344 9.414062 C 4.167969 8.257812 5.609375 5.632812 4.914062 2.648438 C 5.195312 2.289062 5.480469 1.902344 5.789062 1.519531 C 6.300781 0.875 9.492188 -2.855469 11.5 -5.195312 C 11.679688 -5.402344 11.652344 -5.710938 11.449219 -5.890625 Z M 3.085938 7.5625 C 2.390625 8.59375 1.699219 9.003906 1.464844 9.03125 C 1.363281 8.667969 1.699219 7.175781 4.089844 3.78125 C 4.191406 5.632812 3.421875 7.046875 3.085938 7.5625 Z M 3.085938 7.5625 "/></g></g></g><g fill="#ffffff" fill-opacity="1"><g transform="translate(258.35603, 327.613304)"><g><path d="M 21.710938 -15.179688 C 21.378906 -15.640625 19.886719 -15.921875 3.910156 -15.5625 C 4.425781 -17.648438 4.886719 -19.523438 5.300781 -21.042969 C 5.375 -21.324219 5.222656 -21.582031 4.964844 -21.660156 C 4.707031 -21.738281 4.425781 -21.582031 4.347656 -21.324219 C 3.910156 -19.707031 3.421875 -17.75 2.882812 -15.539062 C 1.464844 -15.511719 -0.078125 -15.488281 -1.75 -15.433594 C -4.039062 -15.382812 -5.839844 -15.332031 -6.535156 -15.332031 C -6.816406 -15.332031 -7.046875 -15.101562 -7.046875 -14.84375 C -7.046875 -14.558594 -6.816406 -14.328125 -6.535156 -14.328125 C -5.8125 -14.355469 -4.011719 -14.378906 -1.722656 -14.457031 C -0.515625 -14.484375 0.976562 -14.507812 2.648438 -14.558594 C 1.542969 -9.878906 0.28125 -4.269531 -0.847656 1.210938 C -1.671875 5.222656 -2.339844 8.695312 -2.777344 11.242188 C -3.011719 12.578125 -3.164062 13.632812 -3.242188 14.355469 C -3.34375 15.332031 -3.394531 15.898438 -2.90625 16.078125 C -2.828125 16.078125 -2.777344 16.105469 -2.699219 16.105469 C -2.265625 16.105469 -2.03125 15.488281 -1.828125 14.921875 C -1.722656 14.664062 -1.851562 14.378906 -2.109375 14.277344 C -2.160156 14.277344 -2.1875 14.25 -2.238281 14.25 C -1.980469 12.246094 -1.210938 7.742188 0.28125 0.644531 C 1.390625 -4.734375 2.597656 -10.109375 3.679688 -14.585938 C 10.753906 -14.742188 19.9375 -14.867188 20.992188 -14.507812 C 21.171875 -14.355469 21.402344 -14.355469 21.609375 -14.484375 C 21.816406 -14.636719 21.867188 -14.945312 21.710938 -15.179688 Z M 21.710938 -15.179688 "/></g></g></g><g fill="#ffffff" fill-opacity="1"><g transform="translate(261.777149, 327.613304)"><g><path d="M 10.984375 -21.480469 C 10.804688 -21.632812 10.574219 -21.6875 10.339844 -21.632812 C 9.234375 -21.273438 7.253906 -15.898438 5.351562 -7.046875 C 5.300781 -6.894531 5.222656 -6.765625 5.144531 -6.609375 C 5.015625 -7.613281 4.347656 -7.898438 4.117188 -7.976562 C 3.011719 -8.308594 1.261719 -7.304688 0.0507812 -4.734375 C -0.875 -2.804688 -1.054688 -0.28125 0.101562 0.386719 C 0.667969 0.71875 1.644531 0.667969 3.0625 -1.390625 C 3.679688 -2.265625 4.21875 -3.113281 4.734375 -3.9375 C 4.449219 -2.46875 4.167969 -0.925781 3.910156 0.695312 C 3.421875 3.574219 3.0625 5.992188 2.855469 7.742188 C 2.445312 11.164062 2.648438 11.628906 3.164062 11.78125 C 3.214844 11.808594 3.292969 11.808594 3.34375 11.808594 C 3.808594 11.808594 4.117188 11.214844 4.269531 10.832031 C 4.398438 10.597656 4.296875 10.289062 4.039062 10.1875 C 3.910156 10.109375 3.753906 10.109375 3.628906 10.160156 C 3.679688 9.054688 3.9375 6.535156 4.886719 0.875 C 5.351562 -1.957031 5.839844 -4.476562 6.300781 -6.6875 C 8.230469 -10.339844 9.210938 -13.429688 10.007812 -15.871094 C 10.109375 -16.179688 10.210938 -16.464844 10.289062 -16.722656 C 11.652344 -20.8125 11.140625 -21.300781 10.984375 -21.480469 Z M 2.238281 -1.957031 C 1.261719 -0.539062 0.71875 -0.410156 0.589844 -0.464844 C 0.207031 -0.695312 0.078125 -2.46875 0.953125 -4.320312 C 1.828125 -6.175781 3.011719 -7.046875 3.652344 -7.046875 C 3.730469 -7.046875 3.78125 -7.046875 3.832031 -7.023438 C 4.246094 -6.921875 4.167969 -6.175781 4.140625 -5.96875 C 4.117188 -5.738281 4.246094 -5.503906 4.476562 -5.429688 C 3.832031 -4.320312 3.085938 -3.164062 2.238281 -1.957031 Z M 9.363281 -17.03125 C 9.261719 -16.773438 9.15625 -16.488281 9.082031 -16.179688 C 8.617188 -14.792969 8.101562 -13.222656 7.410156 -11.449219 C 8.488281 -15.71875 9.46875 -18.394531 10.085938 -19.730469 C 9.980469 -19.113281 9.75 -18.238281 9.363281 -17.03125 Z M 9.363281 -17.03125 "/></g></g></g><g fill="#ffffff" fill-opacity="1"><g transform="translate(269.828365, 327.613304)"><g><path d="M 7.511719 -5.839844 C 7.28125 -5.992188 6.996094 -5.917969 6.84375 -5.683594 C 5.121094 -2.90625 2.238281 -0.28125 1.363281 -0.644531 C 1.261719 -0.695312 0.4375 -1.183594 1.570312 -5.53125 C 1.621094 -5.8125 1.464844 -6.070312 1.210938 -6.148438 C 0.925781 -6.199219 0.667969 -6.046875 0.589844 -5.789062 C -0.335938 -2.160156 -0.207031 -0.230469 0.953125 0.257812 C 1.132812 0.335938 1.3125 0.359375 1.492188 0.359375 C 3.421875 0.359375 6.378906 -3.085938 7.691406 -5.171875 C 7.820312 -5.402344 7.742188 -5.710938 7.511719 -5.839844 Z M 1.441406 -7.921875 C 2.753906 -7.847656 2.726562 -9.492188 1.671875 -9.132812 C 1.132812 -8.976562 0.4375 -7.976562 1.441406 -7.921875 Z M 1.441406 -7.921875 "/></g></g></g><g fill="#ffffff" fill-opacity="1"><g transform="translate(276.336219, 327.613304)"><g><path d="M 10.984375 -21.480469 C 10.804688 -21.632812 10.574219 -21.6875 10.339844 -21.632812 C 9.234375 -21.273438 7.253906 -15.898438 5.351562 -7.046875 C 5.300781 -6.894531 5.222656 -6.765625 5.144531 -6.609375 C 5.015625 -7.613281 4.347656 -7.898438 4.117188 -7.976562 C 3.011719 -8.308594 1.261719 -7.304688 0.0507812 -4.734375 C -0.875 -2.804688 -1.054688 -0.28125 0.101562 0.386719 C 0.667969 0.71875 1.644531 0.667969 3.0625 -1.390625 C 3.679688 -2.265625 4.21875 -3.113281 4.734375 -3.9375 C 4.449219 -2.46875 4.167969 -0.925781 3.910156 0.695312 C 3.421875 3.574219 3.0625 5.992188 2.855469 7.742188 C 2.445312 11.164062 2.648438 11.628906 3.164062 11.78125 C 3.214844 11.808594 3.292969 11.808594 3.34375 11.808594 C 3.808594 11.808594 4.117188 11.214844 4.269531 10.832031 C 4.398438 10.597656 4.296875 10.289062 4.039062 10.1875 C 3.910156 10.109375 3.753906 10.109375 3.628906 10.160156 C 3.679688 9.054688 3.9375 6.535156 4.886719 0.875 C 5.351562 -1.957031 5.839844 -4.476562 6.300781 -6.6875 C 8.230469 -10.339844 9.210938 -13.429688 10.007812 -15.871094 C 10.109375 -16.179688 10.210938 -16.464844 10.289062 -16.722656 C 11.652344 -20.8125 11.140625 -21.300781 10.984375 -21.480469 Z M 2.238281 -1.957031 C 1.261719 -0.539062 0.71875 -0.410156 0.589844 -0.464844 C 0.207031 -0.695312 0.078125 -2.46875 0.953125 -4.320312 C 1.828125 -6.175781 3.011719 -7.046875 3.652344 -7.046875 C 3.730469 -7.046875 3.78125 -7.046875 3.832031 -7.023438 C 4.246094 -6.921875 4.167969 -6.175781 4.140625 -5.96875 C 4.117188 -5.738281 4.246094 -5.503906 4.476562 -5.429688 C 3.832031 -4.320312 3.085938 -3.164062 2.238281 -1.957031 Z M 9.363281 -17.03125 C 9.261719 -16.773438 9.15625 -16.488281 9.082031 -16.179688 C 8.617188 -14.792969 8.101562 -13.222656 7.410156 -11.449219 C 8.488281 -15.71875 9.46875 -18.394531 10.085938 -19.730469 C 9.980469 -19.113281 9.75 -18.238281 9.363281 -17.03125 Z M 9.363281 -17.03125 "/></g></g></g><g fill="#ffffff" fill-opacity="1"><g transform="translate(284.387434, 327.613304)"><g><path d="M 10.984375 -21.480469 C 10.804688 -21.632812 10.574219 -21.6875 10.339844 -21.632812 C 9.234375 -21.273438 7.253906 -15.898438 5.351562 -7.046875 C 5.300781 -6.894531 5.222656 -6.765625 5.144531 -6.609375 C 5.015625 -7.613281 4.347656 -7.898438 4.117188 -7.976562 C 3.011719 -8.308594 1.261719 -7.304688 0.0507812 -4.734375 C -0.875 -2.804688 -1.054688 -0.28125 0.101562 0.386719 C 0.667969 0.71875 1.644531 0.667969 3.0625 -1.390625 C 3.679688 -2.265625 4.21875 -3.113281 4.734375 -3.9375 C 4.449219 -2.46875 4.167969 -0.925781 3.910156 0.695312 C 3.421875 3.574219 3.0625 5.992188 2.855469 7.742188 C 2.445312 11.164062 2.648438 11.628906 3.164062 11.78125 C 3.214844 11.808594 3.292969 11.808594 3.34375 11.808594 C 3.808594 11.808594 4.117188 11.214844 4.269531 10.832031 C 4.398438 10.597656 4.296875 10.289062 4.039062 10.1875 C 3.910156 10.109375 3.753906 10.109375 3.628906 10.160156 C 3.679688 9.054688 3.9375 6.535156 4.886719 0.875 C 5.351562 -1.957031 5.839844 -4.476562 6.300781 -6.6875 C 8.230469 -10.339844 9.210938 -13.429688 10.007812 -15.871094 C 10.109375 -16.179688 10.210938 -16.464844 10.289062 -16.722656 C 11.652344 -20.8125 11.140625 -21.300781 10.984375 -21.480469 Z M 2.238281 -1.957031 C 1.261719 -0.539062 0.71875 -0.410156 0.589844 -0.464844 C 0.207031 -0.695312 0.078125 -2.46875 0.953125 -4.320312 C 1.828125 -6.175781 3.011719 -7.046875 3.652344 -7.046875 C 3.730469 -7.046875 3.78125 -7.046875 3.832031 -7.023438 C 4.246094 -6.921875 4.167969 -6.175781 4.140625 -5.96875 C 4.117188 -5.738281 4.246094 -5.503906 4.476562 -5.429688 C 3.832031 -4.320312 3.085938 -3.164062 2.238281 -1.957031 Z M 9.363281 -17.03125 C 9.261719 -16.773438 9.15625 -16.488281 9.082031 -16.179688 C 8.617188 -14.792969 8.101562 -13.222656 7.410156 -11.449219 C 8.488281 -15.71875 9.46875 -18.394531 10.085938 -19.730469 C 9.980469 -19.113281 9.75 -18.238281 9.363281 -17.03125 Z M 9.363281 -17.03125 "/></g></g></g><g fill="#ffffff" fill-opacity="1"><g transform="translate(292.43865, 327.613304)"><g><path d="M 12.578125 -5.660156 C 12.425781 -5.890625 12.117188 -5.941406 11.886719 -5.789062 C 9.671875 -4.347656 7.410156 -2.753906 5.246094 -0.746094 C 5.554688 -2.648438 5.867188 -4.683594 6.148438 -6.816406 C 6.199219 -7.046875 6.046875 -7.28125 5.8125 -7.355469 C 5.609375 -7.433594 5.351562 -7.332031 5.246094 -7.125 C 4.734375 -6.25 3.601562 -4.449219 2.597656 -3.242188 C 2.238281 -2.804688 1.878906 -2.574219 1.699219 -2.699219 C 1.261719 -2.957031 0.953125 -4.734375 1.957031 -7.175781 C 2.058594 -7.433594 1.929688 -7.71875 1.699219 -7.820312 C 1.441406 -7.921875 1.15625 -7.792969 1.054688 -7.539062 C 0 -4.964844 0.0507812 -2.519531 1.210938 -1.851562 C 1.492188 -1.644531 2.316406 -1.363281 3.34375 -2.597656 C 3.882812 -3.242188 4.398438 -3.960938 4.863281 -4.65625 C 4.605469 -2.882812 4.347656 -1.183594 4.066406 0.4375 C 1.902344 2.648438 -0.128906 5.324219 -1.878906 8.722656 C -4.8125 14.355469 -5.351562 20.605469 -3.882812 22.40625 C -3.601562 22.765625 -3.242188 22.945312 -2.855469 22.945312 C -2.726562 22.945312 -2.625 22.921875 -2.496094 22.894531 C -0.824219 22.40625 0.667969 18.703125 1.644531 15.667969 C 2.855469 11.886719 3.960938 6.945312 4.992188 0.898438 C 7.382812 -1.492188 9.929688 -3.34375 12.425781 -4.964844 C 12.65625 -5.121094 12.734375 -5.429688 12.578125 -5.660156 Z M 0.695312 15.359375 C -1.15625 21.222656 -2.496094 21.867188 -2.753906 21.945312 C -2.855469 21.96875 -2.957031 21.96875 -3.113281 21.789062 C -4.039062 20.65625 -4.117188 15.179688 -1.003906 9.15625 C 0.4375 6.40625 2.03125 4.140625 3.753906 2.210938 C 2.828125 7.539062 1.800781 11.9375 0.695312 15.359375 Z M 0.695312 15.359375 "/></g></g></g><g fill="#ffffff" fill-opacity="1"><g transform="translate(303.833829, 327.613304)"><g/></g></g><g fill="#ffffff" fill-opacity="1"><g transform="translate(311.730709, 327.613304)"><g><path d="M 23.332031 -25.003906 C 21.402344 -26.316406 18.289062 -26.496094 14.613281 -25.492188 C 14.175781 -25.390625 13.761719 -25.261719 13.324219 -25.109375 C 13.351562 -25.210938 13.378906 -25.3125 13.402344 -25.417969 C 13.453125 -25.671875 13.273438 -25.929688 13.015625 -26.007812 C 12.757812 -26.058594 12.476562 -25.878906 12.425781 -25.621094 C 12.375 -25.339844 12.296875 -25.03125 12.21875 -24.695312 C 9.648438 -23.691406 7.175781 -22.253906 5.246094 -20.554688 C 1.59375 -17.363281 0.386719 -13.8125 1.929688 -10.753906 C 2.03125 -10.523438 2.339844 -10.417969 2.574219 -10.546875 C 2.828125 -10.648438 2.933594 -10.957031 2.804688 -11.214844 C 2.03125 -12.734375 1.414062 -15.898438 5.890625 -19.808594 C 7.5625 -21.273438 9.699219 -22.5625 11.9375 -23.511719 C 11.34375 -20.941406 10.496094 -17.441406 9.542969 -13.558594 C 8.050781 -7.484375 6.378906 -0.617188 5.171875 4.757812 C 4.5 7.71875 4.039062 9.902344 3.78125 11.472656 C 3.34375 14.097656 3.445312 14.613281 3.960938 14.792969 C 4.011719 14.816406 4.089844 14.816406 4.167969 14.816406 C 4.628906 14.816406 4.992188 14.199219 5.582031 12.863281 C 5.710938 12.632812 5.582031 12.324219 5.351562 12.21875 C 5.09375 12.117188 4.785156 12.21875 4.683594 12.476562 C 4.65625 12.554688 4.605469 12.632812 4.578125 12.683594 C 4.992188 9.699219 6.636719 2.625 8.335938 -4.398438 C 8.953125 -3.085938 10.109375 -2.289062 11.628906 -2.1875 C 11.730469 -2.1875 11.859375 -2.1875 11.960938 -2.1875 C 13.917969 -2.1875 16.234375 -3.320312 18.34375 -5.324219 C 20.890625 -7.742188 23.050781 -11.292969 24.59375 -15.613281 C 26.625 -21.273438 25.03125 -23.847656 23.332031 -25.003906 Z M 23.667969 -15.949219 C 21.789062 -10.703125 19.371094 -7.667969 17.648438 -6.019531 C 15.613281 -4.089844 13.453125 -3.0625 11.703125 -3.191406 C 10.238281 -3.265625 9.261719 -4.167969 8.953125 -5.710938 C 8.902344 -5.839844 8.824219 -5.941406 8.722656 -6.019531 C 9.339844 -8.566406 9.957031 -11.0625 10.496094 -13.324219 C 11.523438 -17.570312 12.449219 -21.324219 13.066406 -23.976562 C 13.660156 -24.179688 14.277344 -24.386719 14.867188 -24.542969 C 18.238281 -25.441406 21.121094 -25.3125 22.792969 -24.179688 C 25.3125 -22.457031 24.671875 -18.753906 23.667969 -15.949219 Z M 23.667969 -15.949219 "/></g></g></g><g fill="#ffffff" fill-opacity="1"><g transform="translate(334.418162, 327.613304)"><g><path d="M 11.292969 -5.8125 C 11.035156 -5.941406 10.726562 -5.839844 10.625 -5.582031 C 7.667969 0.644531 4.863281 3.832031 4.246094 3.730469 C 4.191406 3.703125 3.292969 2.828125 6.199219 -6.097656 C 6.277344 -6.328125 6.457031 -6.867188 6.046875 -7.152344 C 5.660156 -7.460938 5.222656 -7.175781 4.5 -6.6875 C 3.730469 -6.199219 2.675781 -5.503906 1.851562 -5.609375 C 4.476562 -10.136719 4.21875 -11.140625 3.628906 -11.523438 C 2.699219 -12.066406 1.363281 -10.496094 0.746094 -9.59375 C -0.515625 -7.640625 -0.488281 -5.867188 0.847656 -4.964844 C 2.210938 -4.011719 3.988281 -5.171875 5.042969 -5.867188 C 5.066406 -5.890625 5.066406 -5.890625 5.09375 -5.917969 C 4.089844 -2.753906 3.445312 -0.257812 3.214844 1.464844 C 2.933594 3.371094 3.136719 4.375 3.859375 4.65625 C 3.988281 4.683594 4.089844 4.707031 4.21875 4.707031 C 6.277344 4.707031 9.851562 -1.621094 11.523438 -5.144531 C 11.628906 -5.402344 11.523438 -5.710938 11.292969 -5.8125 Z M 0.898438 -7.589844 C 1.261719 -8.976562 2.46875 -10.265625 3.011719 -10.574219 C 2.957031 -10.160156 2.675781 -9.003906 1.027344 -6.148438 C 0.847656 -6.429688 0.71875 -6.867188 0.898438 -7.589844 Z M 0.898438 -7.589844 "/></g></g></g><g fill="#ffffff" fill-opacity="1"><g transform="translate(344.681531, 327.613304)"><g><path d="M 9.3125 -5.582031 C 9.082031 -5.761719 8.773438 -5.710938 8.617188 -5.503906 C 7.539062 -4.117188 5.761719 -2.957031 4.398438 -3.214844 C 4.425781 -3.394531 4.449219 -3.574219 4.449219 -3.753906 C 4.628906 -6.664062 3.730469 -7.253906 3.191406 -7.355469 C 2.574219 -7.484375 1.929688 -7.023438 1.621094 -6.25 C 1.492188 -6.300781 1.335938 -6.300781 1.210938 -6.199219 C 0.179688 -5.554688 -0.667969 -3.910156 -0.207031 -2.136719 C 0.101562 -1.082031 0.824219 -0.410156 1.773438 -0.410156 C 2.675781 -0.410156 3.628906 -1.082031 4.117188 -2.265625 C 5.917969 -1.878906 8.078125 -3.214844 9.390625 -4.886719 C 9.570312 -5.121094 9.519531 -5.429688 9.3125 -5.582031 Z M 1.800781 -1.390625 C 1.773438 -1.390625 1.773438 -1.390625 1.773438 -1.390625 C 1.132812 -1.414062 0.847656 -2.03125 0.773438 -2.390625 C 0.515625 -3.265625 0.71875 -4.476562 1.441406 -5.144531 C 1.492188 -4.269531 1.980469 -3.320312 3.214844 -2.648438 C 2.855469 -1.828125 2.238281 -1.390625 1.800781 -1.390625 Z M 3.472656 -3.808594 C 3.445312 -3.753906 3.445312 -3.703125 3.445312 -3.652344 C 2.46875 -4.296875 2.316406 -5.121094 2.496094 -5.761719 C 2.625 -6.175781 2.882812 -6.378906 3.011719 -6.378906 C 3.136719 -6.355469 3.574219 -5.867188 3.472656 -3.808594 Z M 3.472656 -3.808594 "/></g></g></g><g fill="#ffffff" fill-opacity="1"><g transform="translate(352.912808, 327.613304)"><g><path d="M 5.503906 -9.542969 C 4.835938 -9.75 3.085938 -9.621094 1.261719 -4.296875 C 2.289062 -10.109375 2.46875 -11.140625 2.445312 -11.320312 C 2.445312 -11.578125 2.210938 -11.808594 1.929688 -11.78125 C 1.671875 -11.757812 1.464844 -11.550781 1.464844 -11.292969 C 1.441406 -10.933594 0.796875 -7.460938 0.101562 -3.445312 C -0.0507812 -2.574219 -0.230469 -1.671875 -0.386719 -0.746094 C -0.746094 -0.617188 -1.105469 -0.488281 -1.464844 -0.386719 C -1.722656 -0.308594 -1.878906 -0.0507812 -1.800781 0.230469 C -1.722656 0.488281 -1.464844 0.644531 -1.210938 0.566406 C -1.003906 0.515625 -0.796875 0.4375 -0.589844 0.386719 C -1.699219 6.664062 -2.957031 13.839844 -3.550781 17.777344 C -3.574219 18.035156 -3.394531 18.289062 -3.136719 18.316406 C -3.113281 18.316406 -3.085938 18.34375 -3.0625 18.34375 C -2.828125 18.34375 -2.597656 18.160156 -2.574219 17.929688 C -1.929688 14.121094 -0.15625 5.09375 1.183594 -0.386719 C 1.980469 -0.796875 2.726562 -1.261719 3.421875 -1.800781 C 4.527344 -2.699219 5.941406 -4.140625 6.429688 -6.019531 C 6.921875 -7.742188 6.507812 -9.234375 5.503906 -9.542969 Z M 5.480469 -6.277344 C 4.992188 -4.449219 3.371094 -2.828125 1.519531 -1.699219 C 1.75 -2.574219 1.957031 -3.320312 2.136719 -3.859375 C 3.472656 -7.792969 4.707031 -8.59375 5.144531 -8.59375 C 5.171875 -8.59375 5.195312 -8.59375 5.222656 -8.59375 C 5.554688 -8.488281 5.839844 -7.589844 5.480469 -6.277344 Z M 5.480469 -6.277344 "/></g></g></g><g fill="#ffffff" fill-opacity="1"><g transform="translate(360.68108, 327.613304)"><g><path d="M 8.695312 -5.738281 C 8.464844 -5.890625 8.15625 -5.839844 8 -5.609375 C 6.070312 -2.90625 4.5 -1.210938 2.957031 -0.101562 C 2.1875 0.4375 1.441406 0.539062 0.953125 0.179688 C 0.644531 -0.0507812 -0.308594 -1.082031 0.796875 -4.683594 C 3.292969 -6.738281 4.65625 -8.695312 4.296875 -9.722656 C 4.167969 -10.03125 3.859375 -10.238281 3.523438 -10.238281 C 2.496094 -10.210938 0.925781 -8.4375 -0.101562 -5.121094 C -1.363281 -1.027344 -0.335938 0.464844 0.386719 0.976562 C 0.746094 1.261719 1.15625 1.390625 1.621094 1.390625 C 2.210938 1.390625 2.882812 1.15625 3.523438 0.695312 C 5.171875 -0.488281 6.792969 -2.238281 8.796875 -5.042969 C 8.953125 -5.273438 8.902344 -5.582031 8.695312 -5.738281 Z M 3.320312 -9.15625 C 3.214844 -8.746094 2.777344 -7.921875 1.570312 -6.6875 C 2.238281 -8.179688 2.957031 -8.902344 3.320312 -9.15625 Z M 3.320312 -9.15625 "/></g></g></g><g fill="#ffffff" fill-opacity="1"><g transform="translate(368.166397, 327.613304)"><g><path d="M 11.292969 -5.8125 C 11.035156 -5.941406 10.726562 -5.839844 10.625 -5.582031 C 7.667969 0.644531 4.863281 3.832031 4.246094 3.730469 C 4.191406 3.703125 3.292969 2.828125 6.199219 -6.097656 C 6.277344 -6.328125 6.457031 -6.867188 6.046875 -7.152344 C 5.660156 -7.460938 5.222656 -7.175781 4.5 -6.6875 C 3.730469 -6.199219 2.675781 -5.503906 1.851562 -5.609375 C 4.476562 -10.136719 4.21875 -11.140625 3.628906 -11.523438 C 2.699219 -12.066406 1.363281 -10.496094 0.746094 -9.59375 C -0.515625 -7.640625 -0.488281 -5.867188 0.847656 -4.964844 C 2.210938 -4.011719 3.988281 -5.171875 5.042969 -5.867188 C 5.066406 -5.890625 5.066406 -5.890625 5.09375 -5.917969 C 4.089844 -2.753906 3.445312 -0.257812 3.214844 1.464844 C 2.933594 3.371094 3.136719 4.375 3.859375 4.65625 C 3.988281 4.683594 4.089844 4.707031 4.21875 4.707031 C 6.277344 4.707031 9.851562 -1.621094 11.523438 -5.144531 C 11.628906 -5.402344 11.523438 -5.710938 11.292969 -5.8125 Z M 0.898438 -7.589844 C 1.261719 -8.976562 2.46875 -10.265625 3.011719 -10.574219 C 2.957031 -10.160156 2.675781 -9.003906 1.027344 -6.148438 C 0.847656 -6.429688 0.71875 -6.867188 0.898438 -7.589844 Z M 0.898438 -7.589844 "/></g></g></g><g fill="#ffffff" fill-opacity="1"><g transform="translate(378.429766, 327.613304)"><g><path d="M 21.710938 -15.179688 C 21.378906 -15.640625 19.886719 -15.921875 3.910156 -15.5625 C 4.425781 -17.648438 4.886719 -19.523438 5.300781 -21.042969 C 5.375 -21.324219 5.222656 -21.582031 4.964844 -21.660156 C 4.707031 -21.738281 4.425781 -21.582031 4.347656 -21.324219 C 3.910156 -19.707031 3.421875 -17.75 2.882812 -15.539062 C 1.464844 -15.511719 -0.078125 -15.488281 -1.75 -15.433594 C -4.039062 -15.382812 -5.839844 -15.332031 -6.535156 -15.332031 C -6.816406 -15.332031 -7.046875 -15.101562 -7.046875 -14.84375 C -7.046875 -14.558594 -6.816406 -14.328125 -6.535156 -14.328125 C -5.8125 -14.355469 -4.011719 -14.378906 -1.722656 -14.457031 C -0.515625 -14.484375 0.976562 -14.507812 2.648438 -14.558594 C 1.542969 -9.878906 0.28125 -4.269531 -0.847656 1.210938 C -1.671875 5.222656 -2.339844 8.695312 -2.777344 11.242188 C -3.011719 12.578125 -3.164062 13.632812 -3.242188 14.355469 C -3.34375 15.332031 -3.394531 15.898438 -2.90625 16.078125 C -2.828125 16.078125 -2.777344 16.105469 -2.699219 16.105469 C -2.265625 16.105469 -2.03125 15.488281 -1.828125 14.921875 C -1.722656 14.664062 -1.851562 14.378906 -2.109375 14.277344 C -2.160156 14.277344 -2.1875 14.25 -2.238281 14.25 C -1.980469 12.246094 -1.210938 7.742188 0.28125 0.644531 C 1.390625 -4.734375 2.597656 -10.109375 3.679688 -14.585938 C 10.753906 -14.742188 19.9375 -14.867188 20.992188 -14.507812 C 21.171875 -14.355469 21.402344 -14.355469 21.609375 -14.484375 C 21.816406 -14.636719 21.867188 -14.945312 21.710938 -15.179688 Z M 21.710938 -15.179688 "/></g></g></g><g fill="#ffffff" fill-opacity="1"><g transform="translate(381.850886, 327.613304)"><g><path d="M 7.511719 -5.839844 C 7.28125 -5.992188 6.996094 -5.917969 6.84375 -5.683594 C 5.121094 -2.90625 2.238281 -0.28125 1.363281 -0.644531 C 1.261719 -0.695312 0.4375 -1.183594 1.570312 -5.53125 C 1.621094 -5.8125 1.464844 -6.070312 1.210938 -6.148438 C 0.925781 -6.199219 0.667969 -6.046875 0.589844 -5.789062 C -0.335938 -2.160156 -0.207031 -0.230469 0.953125 0.257812 C 1.132812 0.335938 1.3125 0.359375 1.492188 0.359375 C 3.421875 0.359375 6.378906 -3.085938 7.691406 -5.171875 C 7.820312 -5.402344 7.742188 -5.710938 7.511719 -5.839844 Z M 1.441406 -7.921875 C 2.753906 -7.847656 2.726562 -9.492188 1.671875 -9.132812 C 1.132812 -8.976562 0.4375 -7.976562 1.441406 -7.921875 Z M 1.441406 -7.921875 "/></g></g></g><g fill="#ffffff" fill-opacity="1"><g transform="translate(388.35874, 327.613304)"><g><path d="M 8.695312 -5.738281 C 8.464844 -5.890625 8.15625 -5.839844 8 -5.609375 C 6.070312 -2.90625 4.5 -1.210938 2.957031 -0.101562 C 2.1875 0.4375 1.441406 0.539062 0.953125 0.179688 C 0.644531 -0.0507812 -0.308594 -1.082031 0.796875 -4.683594 C 3.292969 -6.738281 4.65625 -8.695312 4.296875 -9.722656 C 4.167969 -10.03125 3.859375 -10.238281 3.523438 -10.238281 C 2.496094 -10.210938 0.925781 -8.4375 -0.101562 -5.121094 C -1.363281 -1.027344 -0.335938 0.464844 0.386719 0.976562 C 0.746094 1.261719 1.15625 1.390625 1.621094 1.390625 C 2.210938 1.390625 2.882812 1.15625 3.523438 0.695312 C 5.171875 -0.488281 6.792969 -2.238281 8.796875 -5.042969 C 8.953125 -5.273438 8.902344 -5.582031 8.695312 -5.738281 Z M 3.320312 -9.15625 C 3.214844 -8.746094 2.777344 -7.921875 1.570312 -6.6875 C 2.238281 -8.179688 2.957031 -8.902344 3.320312 -9.15625 Z M 3.320312 -9.15625 "/></g></g></g><g fill="#ffffff" fill-opacity="1"><g transform="translate(395.844056, 327.613304)"><g><path d="M 11.449219 -5.890625 C 11.242188 -6.070312 10.933594 -6.046875 10.753906 -5.839844 C 8.722656 -3.5 5.53125 0.230469 5.015625 0.898438 C 4.863281 1.082031 4.707031 1.285156 4.554688 1.492188 C 4.347656 0.976562 4.089844 0.488281 3.753906 -0.0273438 C 2.519531 -1.929688 1.414062 -3.730469 1.464844 -4.992188 C 1.519531 -5.992188 2.03125 -6.867188 2.882812 -7.382812 C 3.574219 -7.792969 4.347656 -7.871094 4.9375 -7.589844 C 5.171875 -7.484375 5.480469 -7.589844 5.582031 -7.847656 C 5.710938 -8.078125 5.609375 -8.386719 5.351562 -8.488281 C 4.476562 -8.902344 3.34375 -8.796875 2.367188 -8.230469 C 1.234375 -7.539062 0.566406 -6.378906 0.488281 -5.042969 C 0.410156 -3.472656 1.542969 -1.59375 2.933594 0.515625 C 3.371094 1.183594 3.652344 1.828125 3.832031 2.445312 C 1.828125 5.171875 -0.335938 8.667969 0.773438 9.75 C 0.953125 9.929688 1.183594 10.007812 1.414062 10.007812 C 1.828125 10.007812 2.289062 9.800781 2.777344 9.414062 C 4.167969 8.257812 5.609375 5.632812 4.914062 2.648438 C 5.195312 2.289062 5.480469 1.902344 5.789062 1.519531 C 6.300781 0.875 9.492188 -2.855469 11.5 -5.195312 C 11.679688 -5.402344 11.652344 -5.710938 11.449219 -5.890625 Z M 3.085938 7.5625 C 2.390625 8.59375 1.699219 9.003906 1.464844 9.03125 C 1.363281 8.667969 1.699219 7.175781 4.089844 3.78125 C 4.191406 5.632812 3.421875 7.046875 3.085938 7.5625 Z M 3.085938 7.5625 "/></g></g></g></svg>