<svg xmlns="http://www.w3.org/2000/svg" xmlns:xlink="http://www.w3.org/1999/xlink" width="800" zoomAndPan="magnify" viewBox="0 0 600 449.999984" height="600" preserveAspectRatio="xMidYMid meet" version="1.0"><defs><g/><clipPath id="2bafe29ea7"><path d="M 45 101.417969 L 225.75 101.417969 L 225.75 321.167969 L 45 321.167969 Z M 45 101.417969 " clip-rule="nonzero"/></clipPath></defs><rect x="-60" width="720" fill="#ffffff" y="-44.999998" height="539.99998" fill-opacity="1"/><rect x="-60" width="720" fill="#ffffff" y="-44.999998" height="539.99998" fill-opacity="1"/><rect x="-60" width="720" fill="#000000" y="-44.999998" height="539.99998" fill-opacity="1"/><g clip-path="url(#2bafe29ea7)"><path fill="#ffffff" d="M 57.757812 171.574219 L 118.75 253.835938 L 56.277344 187.820312 L 56.277344 263.585938 L 95.859375 286.328125 L 118.160156 299.324219 L 134.402344 321.183594 C 133.8125 321.035156 133.074219 320.886719 132.484375 320.441406 L 90.246094 296.074219 L 47.863281 271.707031 C 46.089844 270.675781 45.054688 268.753906 45.054688 266.835938 L 45.054688 169.0625 C 45.054688 166.847656 46.382812 164.78125 48.304688 163.894531 L 49.78125 163.15625 Z M 196.429688 148.980469 L 196.429688 112.648438 L 188.011719 112.648438 L 188.011719 137.164062 L 176.644531 130.8125 L 176.644531 101.421875 L 207.65625 101.421875 L 207.65625 155.476562 L 222.867188 164.191406 C 224.636719 165.222656 225.671875 167.144531 225.671875 169.0625 L 225.671875 266.835938 C 225.671875 269.050781 224.34375 270.96875 222.273438 271.855469 L 180.480469 296.074219 L 146.957031 315.421875 L 146.21875 314.683594 L 145.773438 316.160156 L 139.574219 307.742188 L 138.984375 307.152344 L 139.128906 307.003906 L 77.988281 224.742188 L 149.761719 300.800781 L 174.867188 286.328125 L 214.300781 263.585938 L 214.300781 172.3125 L 196.429688 161.976562 Z M 138.242188 115.304688 L 180.480469 139.824219 L 188.011719 144.105469 L 188.011719 157.101562 L 174.867188 149.421875 L 135.289062 126.675781 L 95.859375 149.421875 L 68.242188 165.371094 L 61.449219 156.363281 L 90.246094 139.824219 L 132.484375 115.304688 C 134.402344 114.273438 136.46875 114.421875 138.242188 115.304688 " fill-opacity="1" fill-rule="nonzero"/></g><path fill="#ffffff" d="M 156.851562 152.671875 L 156.851562 166.996094 C 156.851562 168.179688 155.816406 169.210938 154.636719 169.210938 L 140.308594 169.210938 C 139.128906 169.210938 138.09375 168.179688 138.09375 166.996094 L 138.09375 152.671875 C 138.09375 151.488281 139.128906 150.457031 140.308594 150.457031 L 154.636719 150.457031 C 155.816406 150.457031 156.851562 151.488281 156.851562 152.671875 " fill-opacity="1" fill-rule="evenodd"/><path fill="#ffffff" d="M 156.851562 178.8125 L 156.851562 193.136719 C 156.851562 194.320312 155.816406 195.351562 154.636719 195.351562 L 140.308594 195.351562 C 139.128906 195.351562 138.09375 194.320312 138.09375 193.136719 L 138.09375 178.8125 C 138.09375 177.484375 139.128906 176.597656 140.308594 176.597656 L 154.636719 176.597656 C 155.816406 176.597656 156.851562 177.484375 156.851562 178.8125 " fill-opacity="1" fill-rule="evenodd"/><path fill="#ffffff" d="M 132.632812 152.671875 L 132.632812 166.996094 C 132.632812 168.179688 131.597656 169.210938 130.417969 169.210938 L 116.089844 169.210938 C 114.761719 169.210938 113.875 168.179688 113.875 166.996094 L 113.875 152.671875 C 113.875 151.488281 114.761719 150.457031 116.089844 150.457031 L 130.417969 150.457031 C 131.597656 150.457031 132.632812 151.488281 132.632812 152.671875 " fill-opacity="1" fill-rule="evenodd"/><path fill="#ffffff" d="M 132.632812 178.8125 L 132.632812 193.136719 C 132.632812 194.320312 131.597656 195.351562 130.417969 195.351562 L 116.089844 195.351562 C 114.761719 195.351562 113.875 194.320312 113.875 193.136719 L 113.875 178.8125 C 113.875 177.484375 114.761719 176.597656 116.089844 176.597656 L 130.417969 176.597656 C 131.597656 176.597656 132.632812 177.484375 132.632812 178.8125 " fill-opacity="1" fill-rule="evenodd"/><g fill="#ffffff" fill-opacity="1"><g transform="translate(258.522939, 222.015057)"><g><path d="M 34.421875 -17.066406 C 32.835938 -19.027344 30.667969 -20.277344 28.039062 -20.859375 C 28.328125 -21.195312 28.578125 -21.527344 28.832031 -21.820312 C 31.5 -25.410156 35.339844 -32.125 31.167969 -37.132812 C 28.414062 -40.472656 22.78125 -41.890625 17.105469 -41.054688 C 17.105469 -41.136719 17.148438 -41.179688 17.148438 -41.261719 C 17.230469 -41.679688 16.9375 -42.097656 16.480469 -42.179688 C 16.0625 -42.265625 15.644531 -41.972656 15.5625 -41.515625 C 15.519531 -41.261719 15.480469 -41.011719 15.4375 -40.761719 C 13.808594 -40.386719 12.226562 -39.84375 10.679688 -39.09375 C 3.839844 -35.757812 0.875 -29.582031 2.503906 -22.113281 C 2.585938 -21.695312 3.046875 -21.402344 3.464844 -21.527344 C 3.878906 -21.613281 4.171875 -22.03125 4.089844 -22.488281 C 2.585938 -29.121094 5.257812 -34.671875 11.390625 -37.675781 C 12.601562 -38.257812 13.808594 -38.675781 15.105469 -39.011719 C 14.269531 -34.753906 13.058594 -28.746094 11.683594 -21.988281 C 11.097656 -19.066406 10.554688 -16.355469 10.011719 -13.808594 C 9.472656 -12.933594 9.054688 -11.972656 8.804688 -10.972656 C 8.59375 -10.179688 8.886719 -9.722656 9.136719 -9.472656 C 2.835938 22.03125 3.171875 23.574219 4.507812 23.992188 C 4.589844 24.03125 4.714844 24.03125 4.796875 24.03125 C 5.589844 24.03125 6.175781 22.988281 7.050781 20.859375 C 7.21875 20.445312 7.007812 19.984375 6.59375 19.816406 C 6.175781 19.652344 5.714844 19.816406 5.550781 20.234375 C 5.507812 20.402344 5.425781 20.527344 5.382812 20.652344 C 5.839844 15.605469 8.304688 2.960938 10.722656 -9.136719 C 14.226562 -9.554688 22.03125 -14.5625 26.785156 -19.441406 C 29.457031 -19.109375 31.625 -17.980469 33.167969 -16.0625 C 36.046875 -12.476562 36.296875 -6.675781 33.796875 -0.960938 C 29.957031 7.84375 21.195312 13.558594 10.304688 14.351562 C 9.847656 14.394531 9.511719 14.769531 9.554688 15.230469 C 9.597656 15.644531 9.929688 15.980469 10.347656 15.980469 C 10.390625 15.980469 10.390625 15.980469 10.429688 15.980469 C 21.90625 15.144531 31.207031 9.054688 35.296875 -0.332031 C 38.007812 -6.59375 37.675781 -13.015625 34.421875 -17.066406 Z M 11.054688 -10.804688 C 11.222656 -11.640625 11.390625 -12.433594 11.558594 -13.269531 C 13.683594 -16.605469 17.691406 -18.484375 21.238281 -19.191406 C 22.445312 -19.402344 23.574219 -19.527344 24.65625 -19.566406 C 19.902344 -15.019531 13.519531 -11.472656 11.054688 -10.804688 Z M 26.160156 -21.113281 C 24.53125 -21.238281 22.78125 -21.113281 20.902344 -20.734375 C 17.398438 -20.070312 14.394531 -18.566406 12.183594 -16.480469 C 12.558594 -18.273438 12.933594 -20.027344 13.269531 -21.652344 C 14.726562 -28.789062 15.980469 -35.089844 16.8125 -39.386719 C 22.070312 -40.261719 27.453125 -39.09375 29.914062 -36.132812 C 32.5 -33.003906 31.625 -28.289062 27.535156 -22.78125 C 27.121094 -22.238281 26.660156 -21.652344 26.160156 -21.113281 Z M 26.160156 -21.113281 "/></g></g></g><g fill="#ffffff" fill-opacity="1"><g transform="translate(299.36556, 222.015057)"><g><path d="M 14.101562 -9.304688 C 13.726562 -9.554688 13.226562 -9.472656 12.976562 -9.09375 C 9.847656 -4.714844 7.300781 -1.960938 4.796875 -0.167969 C 3.546875 0.710938 2.335938 0.875 1.542969 0.292969 C 1.042969 -0.0820312 -0.5 -1.753906 1.292969 -7.59375 C 5.339844 -10.929688 7.550781 -14.101562 6.96875 -15.769531 C 6.757812 -16.273438 6.257812 -16.605469 5.714844 -16.605469 C 4.046875 -16.5625 1.503906 -13.683594 -0.167969 -8.304688 C -2.210938 -1.667969 -0.542969 0.75 0.625 1.585938 C 1.210938 2.042969 1.878906 2.253906 2.628906 2.253906 C 3.589844 2.253906 4.671875 1.878906 5.714844 1.125 C 8.386719 -0.792969 11.015625 -3.628906 14.269531 -8.175781 C 14.519531 -8.554688 14.4375 -9.054688 14.101562 -9.304688 Z M 5.382812 -14.851562 C 5.214844 -14.1875 4.507812 -12.851562 2.546875 -10.847656 C 3.628906 -13.269531 4.796875 -14.4375 5.382812 -14.851562 Z M 5.382812 -14.851562 "/></g></g></g><g fill="#ffffff" fill-opacity="1"><g transform="translate(311.505704, 222.015057)"><g><path d="M 18.566406 -9.554688 C 18.234375 -9.847656 17.730469 -9.804688 17.441406 -9.472656 C 14.144531 -5.675781 8.96875 0.375 8.136719 1.460938 C 7.886719 1.753906 7.636719 2.085938 7.386719 2.417969 C 7.050781 1.585938 6.632812 0.792969 6.089844 -0.0429688 C 4.089844 -3.128906 2.292969 -6.050781 2.378906 -8.09375 C 2.460938 -9.722656 3.296875 -11.140625 4.671875 -11.972656 C 5.800781 -12.640625 7.050781 -12.765625 8.011719 -12.308594 C 8.386719 -12.140625 8.886719 -12.308594 9.054688 -12.726562 C 9.261719 -13.101562 9.09375 -13.601562 8.679688 -13.769531 C 7.257812 -14.4375 5.425781 -14.269531 3.839844 -13.351562 C 2.003906 -12.226562 0.917969 -10.347656 0.792969 -8.175781 C 0.667969 -5.632812 2.503906 -2.585938 4.757812 0.835938 C 5.464844 1.917969 5.925781 2.960938 6.214844 3.964844 C 2.960938 8.386719 -0.542969 14.058594 1.25 15.8125 C 1.542969 16.105469 1.917969 16.230469 2.292969 16.230469 C 2.960938 16.230469 3.714844 15.894531 4.507812 15.269531 C 6.757812 13.394531 9.09375 9.136719 7.96875 4.296875 C 8.429688 3.714844 8.886719 3.085938 9.386719 2.460938 C 10.222656 1.417969 15.394531 -4.632812 18.648438 -8.429688 C 18.941406 -8.761719 18.898438 -9.261719 18.566406 -9.554688 Z M 5.007812 12.265625 C 3.878906 13.933594 2.753906 14.601562 2.378906 14.644531 C 2.210938 14.058594 2.753906 11.640625 6.632812 6.132812 C 6.800781 9.136719 5.550781 11.433594 5.007812 12.265625 Z M 5.007812 12.265625 "/></g></g></g><g fill="#ffffff" fill-opacity="1"><g transform="translate(328.318344, 222.015057)"><g><path d="M 35.214844 -24.617188 C 34.671875 -25.367188 32.25 -25.828125 6.34375 -25.242188 C 7.175781 -28.621094 7.925781 -31.667969 8.59375 -34.128906 C 8.71875 -34.589844 8.46875 -35.003906 8.050781 -35.128906 C 7.636719 -35.253906 7.175781 -35.003906 7.050781 -34.589844 C 6.34375 -31.960938 5.550781 -28.789062 4.671875 -25.199219 C 2.378906 -25.160156 -0.125 -25.117188 -2.835938 -25.035156 C -6.550781 -24.949219 -9.472656 -24.867188 -10.597656 -24.867188 C -11.054688 -24.867188 -11.433594 -24.492188 -11.433594 -24.074219 C -11.433594 -23.613281 -11.054688 -23.238281 -10.597656 -23.238281 C -9.429688 -23.28125 -6.507812 -23.324219 -2.796875 -23.449219 C -0.835938 -23.488281 1.585938 -23.53125 4.296875 -23.613281 C 2.503906 -16.019531 0.457031 -6.925781 -1.375 1.960938 C -2.710938 8.46875 -3.796875 14.101562 -4.507812 18.234375 C -4.882812 20.402344 -5.132812 22.113281 -5.257812 23.28125 C -5.425781 24.867188 -5.507812 25.785156 -4.714844 26.078125 C -4.589844 26.078125 -4.507812 26.117188 -4.382812 26.117188 C -3.671875 26.117188 -3.296875 25.117188 -2.960938 24.199219 C -2.796875 23.78125 -3.003906 23.324219 -3.421875 23.15625 C -3.503906 23.15625 -3.546875 23.113281 -3.628906 23.113281 C -3.210938 19.859375 -1.960938 12.558594 0.457031 1.042969 C 2.253906 -7.675781 4.214844 -16.398438 5.964844 -23.65625 C 17.441406 -23.90625 32.335938 -24.117188 34.046875 -23.53125 C 34.335938 -23.28125 34.714844 -23.28125 35.046875 -23.488281 C 35.378906 -23.738281 35.464844 -24.242188 35.214844 -24.617188 Z M 35.214844 -24.617188 "/></g></g></g><g fill="#ffffff" fill-opacity="1"><g transform="translate(333.866931, 222.015057)"><g><path d="M 17.816406 -34.839844 C 17.523438 -35.089844 17.148438 -35.171875 16.773438 -35.089844 C 14.976562 -34.503906 11.765625 -25.785156 8.679688 -11.433594 C 8.59375 -11.179688 8.46875 -10.972656 8.34375 -10.722656 C 8.136719 -12.351562 7.050781 -12.808594 6.675781 -12.933594 C 4.882812 -13.476562 2.042969 -11.847656 0.0820312 -7.675781 C -1.417969 -4.546875 -1.710938 -0.457031 0.167969 0.625 C 1.085938 1.167969 2.671875 1.085938 4.964844 -2.253906 C 5.964844 -3.671875 6.84375 -5.046875 7.675781 -6.382812 C 7.21875 -4.003906 6.757812 -1.503906 6.34375 1.125 C 5.550781 5.800781 4.964844 9.722656 4.632812 12.558594 C 3.964844 18.109375 4.296875 18.859375 5.132812 19.109375 C 5.214844 19.152344 5.339844 19.152344 5.425781 19.152344 C 6.175781 19.152344 6.675781 18.191406 6.925781 17.566406 C 7.132812 17.191406 6.96875 16.6875 6.550781 16.523438 C 6.34375 16.398438 6.089844 16.398438 5.882812 16.480469 C 5.964844 14.6875 6.382812 10.597656 7.925781 1.417969 C 8.679688 -3.171875 9.472656 -7.257812 10.222656 -10.847656 C 13.351562 -16.773438 14.9375 -21.777344 16.230469 -25.742188 C 16.398438 -26.242188 16.5625 -26.703125 16.6875 -27.121094 C 18.898438 -33.753906 18.066406 -34.546875 17.816406 -34.839844 Z M 3.628906 -3.171875 C 2.042969 -0.875 1.167969 -0.667969 0.960938 -0.75 C 0.332031 -1.125 0.125 -4.003906 1.542969 -7.007812 C 2.960938 -10.011719 4.882812 -11.433594 5.925781 -11.433594 C 6.050781 -11.433594 6.132812 -11.433594 6.214844 -11.390625 C 6.882812 -11.222656 6.757812 -10.011719 6.71875 -9.679688 C 6.675781 -9.304688 6.882812 -8.929688 7.257812 -8.804688 C 6.214844 -7.007812 5.007812 -5.132812 3.628906 -3.171875 Z M 15.1875 -27.621094 C 15.019531 -27.203125 14.851562 -26.742188 14.726562 -26.242188 C 13.976562 -23.992188 13.144531 -21.445312 12.015625 -18.566406 C 13.769531 -25.492188 15.355469 -29.832031 16.355469 -32 C 16.1875 -31 15.8125 -29.582031 15.1875 -27.621094 Z M 15.1875 -27.621094 "/></g></g></g><g fill="#ffffff" fill-opacity="1"><g transform="translate(346.924891, 222.015057)"><g><path d="M 12.183594 -9.472656 C 11.808594 -9.722656 11.347656 -9.597656 11.097656 -9.21875 C 8.304688 -4.714844 3.628906 -0.457031 2.210938 -1.042969 C 2.042969 -1.125 0.710938 -1.917969 2.546875 -8.96875 C 2.628906 -9.429688 2.378906 -9.847656 1.960938 -9.972656 C 1.503906 -10.054688 1.085938 -9.804688 0.960938 -9.386719 C -0.542969 -3.503906 -0.332031 -0.375 1.542969 0.417969 C 1.835938 0.542969 2.128906 0.585938 2.417969 0.585938 C 5.550781 0.585938 10.347656 -5.007812 12.476562 -8.386719 C 12.683594 -8.761719 12.558594 -9.261719 12.183594 -9.472656 Z M 2.335938 -12.851562 C 4.464844 -12.726562 4.421875 -15.394531 2.710938 -14.8125 C 1.835938 -14.5625 0.710938 -12.933594 2.335938 -12.851562 Z M 2.335938 -12.851562 "/></g></g></g><g fill="#ffffff" fill-opacity="1"><g transform="translate(357.47973, 222.015057)"><g><path d="M 17.816406 -34.839844 C 17.523438 -35.089844 17.148438 -35.171875 16.773438 -35.089844 C 14.976562 -34.503906 11.765625 -25.785156 8.679688 -11.433594 C 8.59375 -11.179688 8.46875 -10.972656 8.34375 -10.722656 C 8.136719 -12.351562 7.050781 -12.808594 6.675781 -12.933594 C 4.882812 -13.476562 2.042969 -11.847656 0.0820312 -7.675781 C -1.417969 -4.546875 -1.710938 -0.457031 0.167969 0.625 C 1.085938 1.167969 2.671875 1.085938 4.964844 -2.253906 C 5.964844 -3.671875 6.84375 -5.046875 7.675781 -6.382812 C 7.21875 -4.003906 6.757812 -1.503906 6.34375 1.125 C 5.550781 5.800781 4.964844 9.722656 4.632812 12.558594 C 3.964844 18.109375 4.296875 18.859375 5.132812 19.109375 C 5.214844 19.152344 5.339844 19.152344 5.425781 19.152344 C 6.175781 19.152344 6.675781 18.191406 6.925781 17.566406 C 7.132812 17.191406 6.96875 16.6875 6.550781 16.523438 C 6.34375 16.398438 6.089844 16.398438 5.882812 16.480469 C 5.964844 14.6875 6.382812 10.597656 7.925781 1.417969 C 8.679688 -3.171875 9.472656 -7.257812 10.222656 -10.847656 C 13.351562 -16.773438 14.9375 -21.777344 16.230469 -25.742188 C 16.398438 -26.242188 16.5625 -26.703125 16.6875 -27.121094 C 18.898438 -33.753906 18.066406 -34.546875 17.816406 -34.839844 Z M 3.628906 -3.171875 C 2.042969 -0.875 1.167969 -0.667969 0.960938 -0.75 C 0.332031 -1.125 0.125 -4.003906 1.542969 -7.007812 C 2.960938 -10.011719 4.882812 -11.433594 5.925781 -11.433594 C 6.050781 -11.433594 6.132812 -11.433594 6.214844 -11.390625 C 6.882812 -11.222656 6.757812 -10.011719 6.71875 -9.679688 C 6.675781 -9.304688 6.882812 -8.929688 7.257812 -8.804688 C 6.214844 -7.007812 5.007812 -5.132812 3.628906 -3.171875 Z M 15.1875 -27.621094 C 15.019531 -27.203125 14.851562 -26.742188 14.726562 -26.242188 C 13.976562 -23.992188 13.144531 -21.445312 12.015625 -18.566406 C 13.769531 -25.492188 15.355469 -29.832031 16.355469 -32 C 16.1875 -31 15.8125 -29.582031 15.1875 -27.621094 Z M 15.1875 -27.621094 "/></g></g></g><g fill="#ffffff" fill-opacity="1"><g transform="translate(370.537689, 222.015057)"><g><path d="M 17.816406 -34.839844 C 17.523438 -35.089844 17.148438 -35.171875 16.773438 -35.089844 C 14.976562 -34.503906 11.765625 -25.785156 8.679688 -11.433594 C 8.59375 -11.179688 8.46875 -10.972656 8.34375 -10.722656 C 8.136719 -12.351562 7.050781 -12.808594 6.675781 -12.933594 C 4.882812 -13.476562 2.042969 -11.847656 0.0820312 -7.675781 C -1.417969 -4.546875 -1.710938 -0.457031 0.167969 0.625 C 1.085938 1.167969 2.671875 1.085938 4.964844 -2.253906 C 5.964844 -3.671875 6.84375 -5.046875 7.675781 -6.382812 C 7.21875 -4.003906 6.757812 -1.503906 6.34375 1.125 C 5.550781 5.800781 4.964844 9.722656 4.632812 12.558594 C 3.964844 18.109375 4.296875 18.859375 5.132812 19.109375 C 5.214844 19.152344 5.339844 19.152344 5.425781 19.152344 C 6.175781 19.152344 6.675781 18.191406 6.925781 17.566406 C 7.132812 17.191406 6.96875 16.6875 6.550781 16.523438 C 6.34375 16.398438 6.089844 16.398438 5.882812 16.480469 C 5.964844 14.6875 6.382812 10.597656 7.925781 1.417969 C 8.679688 -3.171875 9.472656 -7.257812 10.222656 -10.847656 C 13.351562 -16.773438 14.9375 -21.777344 16.230469 -25.742188 C 16.398438 -26.242188 16.5625 -26.703125 16.6875 -27.121094 C 18.898438 -33.753906 18.066406 -34.546875 17.816406 -34.839844 Z M 3.628906 -3.171875 C 2.042969 -0.875 1.167969 -0.667969 0.960938 -0.75 C 0.332031 -1.125 0.125 -4.003906 1.542969 -7.007812 C 2.960938 -10.011719 4.882812 -11.433594 5.925781 -11.433594 C 6.050781 -11.433594 6.132812 -11.433594 6.214844 -11.390625 C 6.882812 -11.222656 6.757812 -10.011719 6.71875 -9.679688 C 6.675781 -9.304688 6.882812 -8.929688 7.257812 -8.804688 C 6.214844 -7.007812 5.007812 -5.132812 3.628906 -3.171875 Z M 15.1875 -27.621094 C 15.019531 -27.203125 14.851562 -26.742188 14.726562 -26.242188 C 13.976562 -23.992188 13.144531 -21.445312 12.015625 -18.566406 C 13.769531 -25.492188 15.355469 -29.832031 16.355469 -32 C 16.1875 -31 15.8125 -29.582031 15.1875 -27.621094 Z M 15.1875 -27.621094 "/></g></g></g><g fill="#ffffff" fill-opacity="1"><g transform="translate(383.595649, 222.015057)"><g><path d="M 20.402344 -9.179688 C 20.152344 -9.554688 19.652344 -9.636719 19.277344 -9.386719 C 15.6875 -7.050781 12.015625 -4.464844 8.511719 -1.210938 C 9.011719 -4.296875 9.511719 -7.59375 9.972656 -11.054688 C 10.054688 -11.433594 9.804688 -11.808594 9.429688 -11.933594 C 9.09375 -12.058594 8.679688 -11.890625 8.511719 -11.558594 C 7.675781 -10.136719 5.839844 -7.21875 4.214844 -5.257812 C 3.628906 -4.546875 3.046875 -4.171875 2.753906 -4.382812 C 2.042969 -4.796875 1.542969 -7.675781 3.171875 -11.640625 C 3.335938 -12.058594 3.128906 -12.515625 2.753906 -12.683594 C 2.335938 -12.851562 1.878906 -12.640625 1.710938 -12.226562 C 0 -8.050781 0.0820312 -4.089844 1.960938 -3.003906 C 2.417969 -2.671875 3.753906 -2.210938 5.425781 -4.214844 C 6.300781 -5.257812 7.132812 -6.425781 7.886719 -7.550781 C 7.46875 -4.671875 7.050781 -1.917969 6.59375 0.710938 C 3.085938 4.296875 -0.207031 8.636719 -3.046875 14.144531 C -7.800781 23.28125 -8.679688 33.417969 -6.300781 36.339844 C -5.839844 36.925781 -5.257812 37.214844 -4.632812 37.214844 C -4.421875 37.214844 -4.253906 37.175781 -4.046875 37.132812 C -1.335938 36.339844 1.085938 30.332031 2.671875 25.410156 C 4.632812 19.277344 6.425781 11.265625 8.09375 1.460938 C 11.972656 -2.417969 16.105469 -5.425781 20.152344 -8.050781 C 20.527344 -8.304688 20.652344 -8.804688 20.402344 -9.179688 Z M 1.125 24.910156 C -1.878906 34.421875 -4.046875 35.464844 -4.464844 35.589844 C -4.632812 35.632812 -4.796875 35.632812 -5.046875 35.339844 C -6.550781 33.503906 -6.675781 24.617188 -1.628906 14.851562 C 0.710938 10.390625 3.296875 6.71875 6.089844 3.589844 C 4.589844 12.226562 2.921875 19.359375 1.125 24.910156 Z M 1.125 24.910156 "/></g></g></g><g fill="#ffffff" fill-opacity="1"><g transform="translate(402.077043, 222.015057)"><g/></g></g><g fill="#ffffff" fill-opacity="1"><g transform="translate(414.884686, 222.015057)"><g><path d="M 37.84375 -40.554688 C 34.714844 -42.683594 29.664062 -42.972656 23.699219 -41.347656 C 22.988281 -41.179688 22.320312 -40.972656 21.613281 -40.722656 C 21.652344 -40.886719 21.695312 -41.054688 21.738281 -41.222656 C 21.820312 -41.640625 21.527344 -42.054688 21.113281 -42.179688 C 20.695312 -42.265625 20.234375 -41.972656 20.152344 -41.554688 C 20.070312 -41.097656 19.941406 -40.597656 19.816406 -40.054688 C 15.644531 -38.425781 11.640625 -36.089844 8.511719 -33.335938 C 2.585938 -28.164062 0.625 -22.40625 3.128906 -17.441406 C 3.296875 -17.066406 3.796875 -16.898438 4.171875 -17.105469 C 4.589844 -17.273438 4.757812 -17.773438 4.546875 -18.191406 C 3.296875 -20.652344 2.292969 -25.785156 9.554688 -32.125 C 12.265625 -34.503906 15.730469 -36.589844 19.359375 -38.132812 C 18.398438 -33.960938 17.023438 -28.289062 15.480469 -21.988281 C 13.058594 -12.140625 10.347656 -1 8.386719 7.71875 C 7.300781 12.515625 6.550781 16.0625 6.132812 18.609375 C 5.425781 22.863281 5.589844 23.699219 6.425781 23.992188 C 6.507812 24.03125 6.632812 24.03125 6.757812 24.03125 C 7.511719 24.03125 8.09375 23.03125 9.054688 20.859375 C 9.261719 20.484375 9.054688 19.984375 8.679688 19.816406 C 8.261719 19.652344 7.761719 19.816406 7.59375 20.234375 C 7.550781 20.359375 7.46875 20.484375 7.425781 20.570312 C 8.09375 15.730469 10.765625 4.253906 13.519531 -7.132812 C 14.519531 -5.007812 16.398438 -3.714844 18.859375 -3.546875 C 19.027344 -3.546875 19.234375 -3.546875 19.402344 -3.546875 C 22.570312 -3.546875 26.328125 -5.382812 29.75 -8.636719 C 33.878906 -12.558594 37.382812 -18.316406 39.886719 -25.324219 C 43.183594 -34.503906 40.597656 -38.675781 37.84375 -40.554688 Z M 38.382812 -25.867188 C 35.339844 -17.355469 31.417969 -12.433594 28.621094 -9.761719 C 25.324219 -6.632812 21.820312 -4.964844 18.984375 -5.171875 C 16.605469 -5.296875 15.019531 -6.757812 14.519531 -9.261719 C 14.4375 -9.472656 14.3125 -9.636719 14.144531 -9.761719 C 15.144531 -13.894531 16.148438 -17.941406 17.023438 -21.613281 C 18.691406 -28.496094 20.195312 -34.589844 21.195312 -38.886719 C 22.15625 -39.21875 23.15625 -39.554688 24.117188 -39.804688 C 29.582031 -41.261719 34.253906 -41.054688 36.964844 -39.21875 C 41.054688 -36.421875 40.011719 -30.414062 38.382812 -25.867188 Z M 38.382812 -25.867188 "/></g></g></g><g fill="#ffffff" fill-opacity="1"><g transform="translate(451.680609, 222.015057)"><g><path d="M 18.316406 -9.429688 C 17.898438 -9.636719 17.398438 -9.472656 17.230469 -9.054688 C 12.433594 1.042969 7.886719 6.214844 6.882812 6.050781 C 6.800781 6.007812 5.339844 4.589844 10.054688 -9.886719 C 10.179688 -10.265625 10.472656 -11.140625 9.804688 -11.597656 C 9.179688 -12.097656 8.46875 -11.640625 7.300781 -10.847656 C 6.050781 -10.054688 4.339844 -8.929688 3.003906 -9.09375 C 7.257812 -16.4375 6.84375 -18.066406 5.882812 -18.691406 C 4.382812 -19.566406 2.210938 -17.023438 1.210938 -15.5625 C -0.835938 -12.390625 -0.792969 -9.511719 1.375 -8.050781 C 3.589844 -6.507812 6.46875 -8.386719 8.175781 -9.511719 C 8.21875 -9.554688 8.21875 -9.554688 8.261719 -9.597656 C 6.632812 -4.464844 5.589844 -0.417969 5.214844 2.378906 C 4.757812 5.464844 5.089844 7.09375 6.257812 7.550781 C 6.46875 7.59375 6.632812 7.636719 6.84375 7.636719 C 10.179688 7.636719 15.980469 -2.628906 18.691406 -8.34375 C 18.859375 -8.761719 18.691406 -9.261719 18.316406 -9.429688 Z M 1.460938 -12.308594 C 2.042969 -14.5625 4.003906 -16.648438 4.882812 -17.148438 C 4.796875 -16.480469 4.339844 -14.601562 1.667969 -9.972656 C 1.375 -10.429688 1.167969 -11.140625 1.460938 -12.308594 Z M 1.460938 -12.308594 "/></g></g></g><g fill="#ffffff" fill-opacity="1"><g transform="translate(468.326382, 222.015057)"><g><path d="M 15.105469 -9.054688 C 14.726562 -9.347656 14.226562 -9.261719 13.976562 -8.929688 C 12.226562 -6.675781 9.347656 -4.796875 7.132812 -5.214844 C 7.175781 -5.507812 7.21875 -5.800781 7.21875 -6.089844 C 7.511719 -10.804688 6.050781 -11.765625 5.171875 -11.933594 C 4.171875 -12.140625 3.128906 -11.390625 2.628906 -10.136719 C 2.417969 -10.222656 2.167969 -10.222656 1.960938 -10.054688 C 0.292969 -9.011719 -1.085938 -6.34375 -0.332031 -3.464844 C 0.167969 -1.753906 1.335938 -0.667969 2.878906 -0.667969 C 4.339844 -0.667969 5.882812 -1.753906 6.675781 -3.671875 C 9.597656 -3.046875 13.101562 -5.214844 15.230469 -7.925781 C 15.519531 -8.304688 15.4375 -8.804688 15.105469 -9.054688 Z M 2.921875 -2.253906 C 2.878906 -2.253906 2.878906 -2.253906 2.878906 -2.253906 C 1.835938 -2.292969 1.375 -3.296875 1.25 -3.878906 C 0.835938 -5.296875 1.167969 -7.257812 2.335938 -8.34375 C 2.417969 -6.925781 3.210938 -5.382812 5.214844 -4.296875 C 4.632812 -2.960938 3.628906 -2.253906 2.921875 -2.253906 Z M 5.632812 -6.175781 C 5.589844 -6.089844 5.589844 -6.007812 5.589844 -5.925781 C 4.003906 -6.96875 3.753906 -8.304688 4.046875 -9.347656 C 4.253906 -10.011719 4.671875 -10.347656 4.882812 -10.347656 C 5.089844 -10.304688 5.800781 -9.511719 5.632812 -6.175781 Z M 5.632812 -6.175781 "/></g></g></g><g fill="#ffffff" fill-opacity="1"><g transform="translate(481.676372, 222.015057)"><g><path d="M 8.929688 -15.480469 C 7.84375 -15.8125 5.007812 -15.605469 2.042969 -6.96875 C 3.714844 -16.398438 4.003906 -18.066406 3.964844 -18.359375 C 3.964844 -18.773438 3.589844 -19.152344 3.128906 -19.109375 C 2.710938 -19.066406 2.378906 -18.734375 2.378906 -18.316406 C 2.335938 -17.730469 1.292969 -12.097656 0.167969 -5.589844 C -0.0820312 -4.171875 -0.375 -2.710938 -0.625 -1.210938 C -1.210938 -1 -1.792969 -0.792969 -2.378906 -0.625 C -2.796875 -0.5 -3.046875 -0.0820312 -2.921875 0.375 C -2.796875 0.792969 -2.378906 1.042969 -1.960938 0.917969 C -1.628906 0.835938 -1.292969 0.710938 -0.960938 0.625 C -2.753906 10.804688 -4.796875 22.445312 -5.757812 28.832031 C -5.800781 29.246094 -5.507812 29.664062 -5.089844 29.707031 C -5.046875 29.707031 -5.007812 29.75 -4.964844 29.75 C -4.589844 29.75 -4.214844 29.457031 -4.171875 29.082031 C -3.128906 22.90625 -0.25 8.261719 1.917969 -0.625 C 3.210938 -1.292969 4.421875 -2.042969 5.550781 -2.921875 C 7.34375 -4.382812 9.636719 -6.71875 10.429688 -9.761719 C 11.222656 -12.558594 10.554688 -14.976562 8.929688 -15.480469 Z M 8.886719 -10.179688 C 8.09375 -7.21875 5.464844 -4.589844 2.460938 -2.753906 C 2.835938 -4.171875 3.171875 -5.382812 3.464844 -6.257812 C 5.632812 -12.640625 7.636719 -13.933594 8.34375 -13.933594 C 8.386719 -13.933594 8.429688 -13.933594 8.46875 -13.933594 C 9.011719 -13.769531 9.472656 -12.308594 8.886719 -10.179688 Z M 8.886719 -10.179688 "/></g></g></g><g fill="#ffffff" fill-opacity="1"><g transform="translate(494.275424, 222.015057)"><g><path d="M 14.101562 -9.304688 C 13.726562 -9.554688 13.226562 -9.472656 12.976562 -9.09375 C 9.847656 -4.714844 7.300781 -1.960938 4.796875 -0.167969 C 3.546875 0.710938 2.335938 0.875 1.542969 0.292969 C 1.042969 -0.0820312 -0.5 -1.753906 1.292969 -7.59375 C 5.339844 -10.929688 7.550781 -14.101562 6.96875 -15.769531 C 6.757812 -16.273438 6.257812 -16.605469 5.714844 -16.605469 C 4.046875 -16.5625 1.503906 -13.683594 -0.167969 -8.304688 C -2.210938 -1.667969 -0.542969 0.75 0.625 1.585938 C 1.210938 2.042969 1.878906 2.253906 2.628906 2.253906 C 3.589844 2.253906 4.671875 1.878906 5.714844 1.125 C 8.386719 -0.792969 11.015625 -3.628906 14.269531 -8.175781 C 14.519531 -8.554688 14.4375 -9.054688 14.101562 -9.304688 Z M 5.382812 -14.851562 C 5.214844 -14.1875 4.507812 -12.851562 2.546875 -10.847656 C 3.628906 -13.269531 4.796875 -14.4375 5.382812 -14.851562 Z M 5.382812 -14.851562 "/></g></g></g><g fill="#ffffff" fill-opacity="1"><g transform="translate(506.415567, 222.015057)"><g><path d="M 18.316406 -9.429688 C 17.898438 -9.636719 17.398438 -9.472656 17.230469 -9.054688 C 12.433594 1.042969 7.886719 6.214844 6.882812 6.050781 C 6.800781 6.007812 5.339844 4.589844 10.054688 -9.886719 C 10.179688 -10.265625 10.472656 -11.140625 9.804688 -11.597656 C 9.179688 -12.097656 8.46875 -11.640625 7.300781 -10.847656 C 6.050781 -10.054688 4.339844 -8.929688 3.003906 -9.09375 C 7.257812 -16.4375 6.84375 -18.066406 5.882812 -18.691406 C 4.382812 -19.566406 2.210938 -17.023438 1.210938 -15.5625 C -0.835938 -12.390625 -0.792969 -9.511719 1.375 -8.050781 C 3.589844 -6.507812 6.46875 -8.386719 8.175781 -9.511719 C 8.21875 -9.554688 8.21875 -9.554688 8.261719 -9.597656 C 6.632812 -4.464844 5.589844 -0.417969 5.214844 2.378906 C 4.757812 5.464844 5.089844 7.09375 6.257812 7.550781 C 6.46875 7.59375 6.632812 7.636719 6.84375 7.636719 C 10.179688 7.636719 15.980469 -2.628906 18.691406 -8.34375 C 18.859375 -8.761719 18.691406 -9.261719 18.316406 -9.429688 Z M 1.460938 -12.308594 C 2.042969 -14.5625 4.003906 -16.648438 4.882812 -17.148438 C 4.796875 -16.480469 4.339844 -14.601562 1.667969 -9.972656 C 1.375 -10.429688 1.167969 -11.140625 1.460938 -12.308594 Z M 1.460938 -12.308594 "/></g></g></g><g fill="#ffffff" fill-opacity="1"><g transform="translate(523.061341, 222.015057)"><g><path d="M 35.214844 -24.617188 C 34.671875 -25.367188 32.25 -25.828125 6.34375 -25.242188 C 7.175781 -28.621094 7.925781 -31.667969 8.59375 -34.128906 C 8.71875 -34.589844 8.46875 -35.003906 8.050781 -35.128906 C 7.636719 -35.253906 7.175781 -35.003906 7.050781 -34.589844 C 6.34375 -31.960938 5.550781 -28.789062 4.671875 -25.199219 C 2.378906 -25.160156 -0.125 -25.117188 -2.835938 -25.035156 C -6.550781 -24.949219 -9.472656 -24.867188 -10.597656 -24.867188 C -11.054688 -24.867188 -11.433594 -24.492188 -11.433594 -24.074219 C -11.433594 -23.613281 -11.054688 -23.238281 -10.597656 -23.238281 C -9.429688 -23.28125 -6.507812 -23.324219 -2.796875 -23.449219 C -0.835938 -23.488281 1.585938 -23.53125 4.296875 -23.613281 C 2.503906 -16.019531 0.457031 -6.925781 -1.375 1.960938 C -2.710938 8.46875 -3.796875 14.101562 -4.507812 18.234375 C -4.882812 20.402344 -5.132812 22.113281 -5.257812 23.28125 C -5.425781 24.867188 -5.507812 25.785156 -4.714844 26.078125 C -4.589844 26.078125 -4.507812 26.117188 -4.382812 26.117188 C -3.671875 26.117188 -3.296875 25.117188 -2.960938 24.199219 C -2.796875 23.78125 -3.003906 23.324219 -3.421875 23.15625 C -3.503906 23.15625 -3.546875 23.113281 -3.628906 23.113281 C -3.210938 19.859375 -1.960938 12.558594 0.457031 1.042969 C 2.253906 -7.675781 4.214844 -16.398438 5.964844 -23.65625 C 17.441406 -23.90625 32.335938 -24.117188 34.046875 -23.53125 C 34.335938 -23.28125 34.714844 -23.28125 35.046875 -23.488281 C 35.378906 -23.738281 35.464844 -24.242188 35.214844 -24.617188 Z M 35.214844 -24.617188 "/></g></g></g><g fill="#ffffff" fill-opacity="1"><g transform="translate(528.609939, 222.015057)"><g><path d="M 12.183594 -9.472656 C 11.808594 -9.722656 11.347656 -9.597656 11.097656 -9.21875 C 8.304688 -4.714844 3.628906 -0.457031 2.210938 -1.042969 C 2.042969 -1.125 0.710938 -1.917969 2.546875 -8.96875 C 2.628906 -9.429688 2.378906 -9.847656 1.960938 -9.972656 C 1.503906 -10.054688 1.085938 -9.804688 0.960938 -9.386719 C -0.542969 -3.503906 -0.332031 -0.375 1.542969 0.417969 C 1.835938 0.542969 2.128906 0.585938 2.417969 0.585938 C 5.550781 0.585938 10.347656 -5.007812 12.476562 -8.386719 C 12.683594 -8.761719 12.558594 -9.261719 12.183594 -9.472656 Z M 2.335938 -12.851562 C 4.464844 -12.726562 4.421875 -15.394531 2.710938 -14.8125 C 1.835938 -14.5625 0.710938 -12.933594 2.335938 -12.851562 Z M 2.335938 -12.851562 "/></g></g></g><g fill="#ffffff" fill-opacity="1"><g transform="translate(539.164779, 222.015057)"><g><path d="M 14.101562 -9.304688 C 13.726562 -9.554688 13.226562 -9.472656 12.976562 -9.09375 C 9.847656 -4.714844 7.300781 -1.960938 4.796875 -0.167969 C 3.546875 0.710938 2.335938 0.875 1.542969 0.292969 C 1.042969 -0.0820312 -0.5 -1.753906 1.292969 -7.59375 C 5.339844 -10.929688 7.550781 -14.101562 6.96875 -15.769531 C 6.757812 -16.273438 6.257812 -16.605469 5.714844 -16.605469 C 4.046875 -16.5625 1.503906 -13.683594 -0.167969 -8.304688 C -2.210938 -1.667969 -0.542969 0.75 0.625 1.585938 C 1.210938 2.042969 1.878906 2.253906 2.628906 2.253906 C 3.589844 2.253906 4.671875 1.878906 5.714844 1.125 C 8.386719 -0.792969 11.015625 -3.628906 14.269531 -8.175781 C 14.519531 -8.554688 14.4375 -9.054688 14.101562 -9.304688 Z M 5.382812 -14.851562 C 5.214844 -14.1875 4.507812 -12.851562 2.546875 -10.847656 C 3.628906 -13.269531 4.796875 -14.4375 5.382812 -14.851562 Z M 5.382812 -14.851562 "/></g></g></g><g fill="#ffffff" fill-opacity="1"><g transform="translate(551.304922, 222.015057)"><g><path d="M 18.566406 -9.554688 C 18.234375 -9.847656 17.730469 -9.804688 17.441406 -9.472656 C 14.144531 -5.675781 8.96875 0.375 8.136719 1.460938 C 7.886719 1.753906 7.636719 2.085938 7.386719 2.417969 C 7.050781 1.585938 6.632812 0.792969 6.089844 -0.0429688 C 4.089844 -3.128906 2.292969 -6.050781 2.378906 -8.09375 C 2.460938 -9.722656 3.296875 -11.140625 4.671875 -11.972656 C 5.800781 -12.640625 7.050781 -12.765625 8.011719 -12.308594 C 8.386719 -12.140625 8.886719 -12.308594 9.054688 -12.726562 C 9.261719 -13.101562 9.09375 -13.601562 8.679688 -13.769531 C 7.257812 -14.4375 5.425781 -14.269531 3.839844 -13.351562 C 2.003906 -12.226562 0.917969 -10.347656 0.792969 -8.175781 C 0.667969 -5.632812 2.503906 -2.585938 4.757812 0.835938 C 5.464844 1.917969 5.925781 2.960938 6.214844 3.964844 C 2.960938 8.386719 -0.542969 14.058594 1.25 15.8125 C 1.542969 16.105469 1.917969 16.230469 2.292969 16.230469 C 2.960938 16.230469 3.714844 15.894531 4.507812 15.269531 C 6.757812 13.394531 9.09375 9.136719 7.96875 4.296875 C 8.429688 3.714844 8.886719 3.085938 9.386719 2.460938 C 10.222656 1.417969 15.394531 -4.632812 18.648438 -8.429688 C 18.941406 -8.761719 18.898438 -9.261719 18.566406 -9.554688 Z M 5.007812 12.265625 C 3.878906 13.933594 2.753906 14.601562 2.378906 14.644531 C 2.210938 14.058594 2.753906 11.640625 6.632812 6.132812 C 6.800781 9.136719 5.550781 11.433594 5.007812 12.265625 Z M 5.007812 12.265625 "/></g></g></g></svg>