<svg xmlns="http://www.w3.org/2000/svg" xmlns:xlink="http://www.w3.org/1999/xlink" width="800" zoomAndPan="magnify" viewBox="0 0 600 449.999984" height="600" preserveAspectRatio="xMidYMid meet" version="1.0"><defs><g/><clipPath id="bbeb21102b"><path d="M 29.695312 106.007812 L 210.445312 106.007812 L 210.445312 325.757812 L 29.695312 325.757812 Z M 29.695312 106.007812 " clip-rule="nonzero"/></clipPath></defs><rect x="-60" width="720" fill="#ffffff" y="-44.999998" height="539.99998" fill-opacity="1"/><rect x="-60" width="720" fill="#ffffff" y="-44.999998" height="539.99998" fill-opacity="1"/><rect x="-60" width="720" fill="#ffffff" y="-44.999998" height="539.99998" fill-opacity="1"/><g clip-path="url(#bbeb21102b)"><path fill="#000000" d="M 42.449219 176.167969 L 103.441406 258.429688 L 40.972656 192.414062 L 40.972656 268.175781 L 80.550781 290.921875 L 102.851562 303.917969 L 119.097656 325.773438 C 118.507812 325.625 117.769531 325.480469 117.175781 325.035156 L 74.941406 300.667969 L 32.554688 276.296875 C 30.78125 275.265625 29.75 273.347656 29.75 271.425781 L 29.75 173.65625 C 29.75 171.441406 31.078125 169.375 33 168.488281 L 34.476562 167.75 Z M 181.125 153.570312 L 181.125 117.242188 L 172.707031 117.242188 L 172.707031 141.753906 L 161.335938 135.40625 L 161.335938 106.015625 L 192.347656 106.015625 L 192.347656 160.070312 L 207.5625 168.78125 C 209.332031 169.816406 210.367188 171.738281 210.367188 173.65625 L 210.367188 271.425781 C 210.367188 273.640625 209.035156 275.5625 206.96875 276.449219 L 165.171875 300.667969 L 131.648438 320.015625 L 130.914062 319.277344 L 130.46875 320.753906 L 124.265625 312.332031 L 123.675781 311.742188 L 123.824219 311.597656 L 62.683594 229.335938 L 134.457031 305.390625 L 159.5625 290.921875 L 198.996094 268.175781 L 198.996094 176.90625 L 181.125 166.566406 Z M 122.9375 119.898438 L 165.171875 144.414062 L 172.707031 148.695312 L 172.707031 161.691406 L 159.5625 154.011719 L 119.984375 131.269531 L 80.550781 154.011719 L 52.933594 169.964844 L 46.140625 160.957031 L 74.941406 144.414062 L 117.175781 119.898438 C 119.097656 118.863281 121.164062 119.011719 122.9375 119.898438 " fill-opacity="1" fill-rule="nonzero"/></g><path fill="#000000" d="M 141.546875 157.261719 L 141.546875 171.589844 C 141.546875 172.769531 140.511719 173.804688 139.328125 173.804688 L 125.003906 173.804688 C 123.824219 173.804688 122.789062 172.769531 122.789062 171.589844 L 122.789062 157.261719 C 122.789062 156.082031 123.824219 155.046875 125.003906 155.046875 L 139.328125 155.046875 C 140.511719 155.046875 141.546875 156.082031 141.546875 157.261719 " fill-opacity="1" fill-rule="evenodd"/><path fill="#000000" d="M 141.546875 183.402344 L 141.546875 197.730469 C 141.546875 198.910156 140.511719 199.945312 139.328125 199.945312 L 125.003906 199.945312 C 123.824219 199.945312 122.789062 198.910156 122.789062 197.730469 L 122.789062 183.402344 C 122.789062 182.074219 123.824219 181.1875 125.003906 181.1875 L 139.328125 181.1875 C 140.511719 181.1875 141.546875 182.074219 141.546875 183.402344 " fill-opacity="1" fill-rule="evenodd"/><path fill="#000000" d="M 117.324219 157.261719 L 117.324219 171.589844 C 117.324219 172.769531 116.292969 173.804688 115.109375 173.804688 L 100.785156 173.804688 C 99.457031 173.804688 98.570312 172.769531 98.570312 171.589844 L 98.570312 157.261719 C 98.570312 156.082031 99.457031 155.046875 100.785156 155.046875 L 115.109375 155.046875 C 116.292969 155.046875 117.324219 156.082031 117.324219 157.261719 " fill-opacity="1" fill-rule="evenodd"/><path fill="#000000" d="M 117.324219 183.402344 L 117.324219 197.730469 C 117.324219 198.910156 116.292969 199.945312 115.109375 199.945312 L 100.785156 199.945312 C 99.457031 199.945312 98.570312 198.910156 98.570312 197.730469 L 98.570312 183.402344 C 98.570312 182.074219 99.457031 181.1875 100.785156 181.1875 L 115.109375 181.1875 C 116.292969 181.1875 117.324219 182.074219 117.324219 183.402344 " fill-opacity="1" fill-rule="evenodd"/><g fill="#000000" fill-opacity="1"><g transform="translate(227.715536, 237.374982)"><g><path d="M 38.546875 -19.109375 C 36.773438 -21.304688 34.34375 -22.707031 31.398438 -23.363281 C 31.726562 -23.734375 32.007812 -24.109375 32.285156 -24.4375 C 35.277344 -28.457031 39.574219 -35.976562 34.902344 -41.585938 C 31.820312 -45.324219 25.511719 -46.910156 19.15625 -45.976562 C 19.15625 -46.070312 19.203125 -46.117188 19.203125 -46.210938 C 19.296875 -46.679688 18.96875 -47.144531 18.457031 -47.238281 C 17.988281 -47.332031 17.523438 -47.003906 17.429688 -46.492188 C 17.382812 -46.210938 17.335938 -45.929688 17.289062 -45.648438 C 15.464844 -45.230469 13.691406 -44.621094 11.960938 -43.78125 C 4.296875 -40.042969 0.980469 -33.128906 2.804688 -24.765625 C 2.898438 -24.296875 3.410156 -23.96875 3.878906 -24.109375 C 4.34375 -24.203125 4.671875 -24.671875 4.578125 -25.183594 C 2.898438 -32.613281 5.886719 -38.828125 12.757812 -42.191406 C 14.109375 -42.847656 15.464844 -43.3125 16.914062 -43.6875 C 15.980469 -38.921875 14.625 -32.195312 13.082031 -24.625 C 12.429688 -21.351562 11.820312 -18.316406 11.214844 -15.464844 C 10.605469 -14.484375 10.140625 -13.410156 9.859375 -12.289062 C 9.625 -11.402344 9.953125 -10.886719 10.234375 -10.605469 C 3.175781 24.671875 3.550781 26.398438 5.046875 26.867188 C 5.140625 26.914062 5.28125 26.914062 5.375 26.914062 C 6.261719 26.914062 6.914062 25.746094 7.898438 23.363281 C 8.082031 22.894531 7.851562 22.382812 7.382812 22.195312 C 6.914062 22.007812 6.402344 22.195312 6.214844 22.660156 C 6.167969 22.847656 6.074219 22.988281 6.027344 23.128906 C 6.542969 17.476562 9.296875 3.316406 12.007812 -10.234375 C 15.933594 -10.699219 24.671875 -16.308594 29.996094 -21.773438 C 32.988281 -21.398438 35.417969 -20.136719 37.144531 -17.988281 C 40.371094 -13.972656 40.652344 -7.476562 37.847656 -1.074219 C 33.546875 8.785156 23.734375 15.1875 11.542969 16.074219 C 11.027344 16.121094 10.652344 16.539062 10.699219 17.054688 C 10.746094 17.523438 11.121094 17.894531 11.585938 17.894531 C 11.632812 17.894531 11.632812 17.894531 11.679688 17.894531 C 24.53125 16.960938 34.949219 10.140625 39.53125 -0.375 C 42.566406 -7.382812 42.191406 -14.578125 38.546875 -19.109375 Z M 12.382812 -12.101562 C 12.570312 -13.035156 12.757812 -13.925781 12.941406 -14.859375 C 15.324219 -18.597656 19.8125 -20.699219 23.78125 -21.492188 C 25.136719 -21.726562 26.398438 -21.867188 27.613281 -21.914062 C 22.289062 -16.820312 15.140625 -12.847656 12.382812 -12.101562 Z M 29.296875 -23.644531 C 27.472656 -23.78125 25.511719 -23.644531 23.410156 -23.222656 C 19.484375 -22.476562 16.121094 -20.792969 13.644531 -18.457031 C 14.0625 -20.464844 14.484375 -22.429688 14.859375 -24.25 C 16.492188 -32.242188 17.894531 -39.296875 18.832031 -44.109375 C 24.71875 -45.089844 30.746094 -43.78125 33.5 -40.464844 C 36.398438 -36.960938 35.417969 -31.679688 30.839844 -25.511719 C 30.371094 -24.90625 29.855469 -24.25 29.296875 -23.644531 Z M 29.296875 -23.644531 "/></g></g></g><g fill="#000000" fill-opacity="1"><g transform="translate(273.457006, 237.374982)"><g><path d="M 15.792969 -10.417969 C 15.371094 -10.699219 14.8125 -10.605469 14.53125 -10.1875 C 11.027344 -5.28125 8.175781 -2.195312 5.375 -0.1875 C 3.972656 0.792969 2.617188 0.980469 1.730469 0.328125 C 1.167969 -0.09375 -0.5625 -1.960938 1.449219 -8.503906 C 5.980469 -12.242188 8.457031 -15.792969 7.804688 -17.660156 C 7.570312 -18.222656 7.007812 -18.597656 6.402344 -18.597656 C 4.53125 -18.550781 1.683594 -15.324219 -0.1875 -9.296875 C -2.476562 -1.867188 -0.609375 0.839844 0.699219 1.777344 C 1.355469 2.289062 2.101562 2.523438 2.945312 2.523438 C 4.019531 2.523438 5.234375 2.101562 6.402344 1.261719 C 9.390625 -0.886719 12.335938 -4.066406 15.980469 -9.15625 C 16.261719 -9.578125 16.167969 -10.140625 15.792969 -10.417969 Z M 6.027344 -16.632812 C 5.839844 -15.886719 5.046875 -14.390625 2.851562 -12.148438 C 4.066406 -14.859375 5.375 -16.167969 6.027344 -16.632812 Z M 6.027344 -16.632812 "/></g></g></g><g fill="#000000" fill-opacity="1"><g transform="translate(287.053295, 237.374982)"><g><path d="M 20.792969 -10.699219 C 20.417969 -11.027344 19.859375 -10.980469 19.53125 -10.605469 C 15.839844 -6.355469 10.046875 0.421875 9.113281 1.636719 C 8.832031 1.960938 8.550781 2.335938 8.269531 2.710938 C 7.898438 1.777344 7.429688 0.886719 6.820312 -0.046875 C 4.578125 -3.503906 2.570312 -6.773438 2.664062 -9.066406 C 2.757812 -10.886719 3.691406 -12.476562 5.234375 -13.410156 C 6.496094 -14.15625 7.898438 -14.296875 8.972656 -13.785156 C 9.390625 -13.597656 9.953125 -13.785156 10.140625 -14.25 C 10.371094 -14.671875 10.1875 -15.230469 9.71875 -15.417969 C 8.128906 -16.167969 6.074219 -15.980469 4.296875 -14.953125 C 2.242188 -13.691406 1.027344 -11.585938 0.886719 -9.15625 C 0.746094 -6.308594 2.804688 -2.898438 5.328125 0.933594 C 6.121094 2.148438 6.636719 3.316406 6.960938 4.4375 C 3.316406 9.390625 -0.609375 15.746094 1.402344 17.707031 C 1.730469 18.035156 2.148438 18.175781 2.570312 18.175781 C 3.316406 18.175781 4.160156 17.800781 5.046875 17.101562 C 7.570312 15 10.1875 10.234375 8.925781 4.8125 C 9.4375 4.160156 9.953125 3.457031 10.511719 2.757812 C 11.449219 1.589844 17.242188 -5.1875 20.886719 -9.4375 C 21.214844 -9.8125 21.167969 -10.371094 20.792969 -10.699219 Z M 5.605469 13.738281 C 4.34375 15.605469 3.082031 16.355469 2.664062 16.402344 C 2.476562 15.746094 3.082031 13.035156 7.429688 6.867188 C 7.617188 10.234375 6.214844 12.800781 5.605469 13.738281 Z M 5.605469 13.738281 "/></g></g></g><g fill="#000000" fill-opacity="1"><g transform="translate(305.882522, 237.374982)"><g><path d="M 39.4375 -27.566406 C 38.828125 -28.410156 36.117188 -28.921875 7.101562 -28.269531 C 8.035156 -32.054688 8.878906 -35.464844 9.625 -38.222656 C 9.765625 -38.734375 9.484375 -39.203125 9.019531 -39.34375 C 8.550781 -39.484375 8.035156 -39.203125 7.898438 -38.734375 C 7.101562 -35.792969 6.214844 -32.242188 5.234375 -28.222656 C 2.664062 -28.175781 -0.140625 -28.128906 -3.175781 -28.035156 C -7.335938 -27.941406 -10.605469 -27.847656 -11.867188 -27.847656 C -12.382812 -27.847656 -12.800781 -27.425781 -12.800781 -26.960938 C -12.800781 -26.445312 -12.382812 -26.027344 -11.867188 -26.027344 C -10.558594 -26.074219 -7.289062 -26.121094 -3.128906 -26.257812 C -0.933594 -26.304688 1.777344 -26.351562 4.8125 -26.445312 C 2.804688 -17.941406 0.515625 -7.757812 -1.542969 2.195312 C -3.039062 9.484375 -4.253906 15.792969 -5.046875 20.417969 C -5.46875 22.847656 -5.746094 24.765625 -5.886719 26.074219 C -6.074219 27.847656 -6.167969 28.875 -5.28125 29.203125 C -5.140625 29.203125 -5.046875 29.25 -4.90625 29.25 C -4.113281 29.25 -3.691406 28.128906 -3.316406 27.101562 C -3.128906 26.632812 -3.363281 26.121094 -3.832031 25.933594 C -3.925781 25.933594 -3.972656 25.886719 -4.066406 25.886719 C -3.597656 22.242188 -2.195312 14.0625 0.515625 1.167969 C 2.523438 -8.597656 4.71875 -18.363281 6.683594 -26.492188 C 19.53125 -26.773438 36.210938 -27.007812 38.128906 -26.351562 C 38.453125 -26.074219 38.875 -26.074219 39.25 -26.304688 C 39.621094 -26.585938 39.714844 -27.148438 39.4375 -27.566406 Z M 39.4375 -27.566406 "/></g></g></g><g fill="#000000" fill-opacity="1"><g transform="translate(312.096629, 237.374982)"><g><path d="M 19.953125 -39.015625 C 19.625 -39.296875 19.203125 -39.390625 18.785156 -39.296875 C 16.773438 -38.640625 13.175781 -28.875 9.71875 -12.800781 C 9.625 -12.523438 9.484375 -12.289062 9.34375 -12.007812 C 9.113281 -13.832031 7.898438 -14.34375 7.476562 -14.484375 C 5.46875 -15.09375 2.289062 -13.269531 0.09375 -8.597656 C -1.589844 -5.09375 -1.914062 -0.515625 0.1875 0.699219 C 1.214844 1.308594 2.992188 1.214844 5.558594 -2.523438 C 6.683594 -4.113281 7.664062 -5.652344 8.597656 -7.148438 C 8.082031 -4.484375 7.570312 -1.683594 7.101562 1.261719 C 6.214844 6.496094 5.558594 10.886719 5.1875 14.0625 C 4.4375 20.277344 4.8125 21.121094 5.746094 21.398438 C 5.839844 21.445312 5.980469 21.445312 6.074219 21.445312 C 6.914062 21.445312 7.476562 20.371094 7.757812 19.671875 C 7.988281 19.25 7.804688 18.691406 7.335938 18.503906 C 7.101562 18.363281 6.820312 18.363281 6.589844 18.457031 C 6.683594 16.445312 7.148438 11.867188 8.878906 1.589844 C 9.71875 -3.550781 10.605469 -8.128906 11.449219 -12.148438 C 14.953125 -18.785156 16.726562 -24.390625 18.175781 -28.828125 C 18.363281 -29.390625 18.550781 -29.902344 18.691406 -30.371094 C 21.167969 -37.800781 20.230469 -38.6875 19.953125 -39.015625 Z M 4.066406 -3.550781 C 2.289062 -0.980469 1.308594 -0.746094 1.074219 -0.839844 C 0.375 -1.261719 0.140625 -4.484375 1.730469 -7.851562 C 3.316406 -11.214844 5.46875 -12.800781 6.636719 -12.800781 C 6.773438 -12.800781 6.867188 -12.800781 6.960938 -12.757812 C 7.710938 -12.570312 7.570312 -11.214844 7.523438 -10.839844 C 7.476562 -10.417969 7.710938 -10 8.128906 -9.859375 C 6.960938 -7.851562 5.605469 -5.746094 4.066406 -3.550781 Z M 17.007812 -30.933594 C 16.820312 -30.464844 16.632812 -29.949219 16.492188 -29.390625 C 15.652344 -26.867188 14.71875 -24.015625 13.457031 -20.792969 C 15.417969 -28.550781 17.195312 -33.410156 18.316406 -35.839844 C 18.128906 -34.714844 17.707031 -33.128906 17.007812 -30.933594 Z M 17.007812 -30.933594 "/></g></g></g><g fill="#000000" fill-opacity="1"><g transform="translate(326.720815, 237.374982)"><g><path d="M 13.644531 -10.605469 C 13.222656 -10.886719 12.710938 -10.746094 12.429688 -10.328125 C 9.296875 -5.28125 4.066406 -0.515625 2.476562 -1.167969 C 2.289062 -1.261719 0.792969 -2.148438 2.851562 -10.046875 C 2.945312 -10.558594 2.664062 -11.027344 2.195312 -11.167969 C 1.683594 -11.261719 1.214844 -10.980469 1.074219 -10.511719 C -0.609375 -3.925781 -0.375 -0.421875 1.730469 0.46875 C 2.054688 0.609375 2.382812 0.652344 2.710938 0.652344 C 6.214844 0.652344 11.585938 -5.605469 13.972656 -9.390625 C 14.203125 -9.8125 14.0625 -10.371094 13.644531 -10.605469 Z M 2.617188 -14.390625 C 5 -14.25 4.953125 -17.242188 3.039062 -16.585938 C 2.054688 -16.308594 0.792969 -14.484375 2.617188 -14.390625 Z M 2.617188 -14.390625 "/></g></g></g><g fill="#000000" fill-opacity="1"><g transform="translate(338.541646, 237.374982)"><g><path d="M 19.953125 -39.015625 C 19.625 -39.296875 19.203125 -39.390625 18.785156 -39.296875 C 16.773438 -38.640625 13.175781 -28.875 9.71875 -12.800781 C 9.625 -12.523438 9.484375 -12.289062 9.34375 -12.007812 C 9.113281 -13.832031 7.898438 -14.34375 7.476562 -14.484375 C 5.46875 -15.09375 2.289062 -13.269531 0.09375 -8.597656 C -1.589844 -5.09375 -1.914062 -0.515625 0.1875 0.699219 C 1.214844 1.308594 2.992188 1.214844 5.558594 -2.523438 C 6.683594 -4.113281 7.664062 -5.652344 8.597656 -7.148438 C 8.082031 -4.484375 7.570312 -1.683594 7.101562 1.261719 C 6.214844 6.496094 5.558594 10.886719 5.1875 14.0625 C 4.4375 20.277344 4.8125 21.121094 5.746094 21.398438 C 5.839844 21.445312 5.980469 21.445312 6.074219 21.445312 C 6.914062 21.445312 7.476562 20.371094 7.757812 19.671875 C 7.988281 19.25 7.804688 18.691406 7.335938 18.503906 C 7.101562 18.363281 6.820312 18.363281 6.589844 18.457031 C 6.683594 16.445312 7.148438 11.867188 8.878906 1.589844 C 9.71875 -3.550781 10.605469 -8.128906 11.449219 -12.148438 C 14.953125 -18.785156 16.726562 -24.390625 18.175781 -28.828125 C 18.363281 -29.390625 18.550781 -29.902344 18.691406 -30.371094 C 21.167969 -37.800781 20.230469 -38.6875 19.953125 -39.015625 Z M 4.066406 -3.550781 C 2.289062 -0.980469 1.308594 -0.746094 1.074219 -0.839844 C 0.375 -1.261719 0.140625 -4.484375 1.730469 -7.851562 C 3.316406 -11.214844 5.46875 -12.800781 6.636719 -12.800781 C 6.773438 -12.800781 6.867188 -12.800781 6.960938 -12.757812 C 7.710938 -12.570312 7.570312 -11.214844 7.523438 -10.839844 C 7.476562 -10.417969 7.710938 -10 8.128906 -9.859375 C 6.960938 -7.851562 5.605469 -5.746094 4.066406 -3.550781 Z M 17.007812 -30.933594 C 16.820312 -30.464844 16.632812 -29.949219 16.492188 -29.390625 C 15.652344 -26.867188 14.71875 -24.015625 13.457031 -20.792969 C 15.417969 -28.550781 17.195312 -33.410156 18.316406 -35.839844 C 18.128906 -34.714844 17.707031 -33.128906 17.007812 -30.933594 Z M 17.007812 -30.933594 "/></g></g></g><g fill="#000000" fill-opacity="1"><g transform="translate(353.165832, 237.374982)"><g><path d="M 19.953125 -39.015625 C 19.625 -39.296875 19.203125 -39.390625 18.785156 -39.296875 C 16.773438 -38.640625 13.175781 -28.875 9.71875 -12.800781 C 9.625 -12.523438 9.484375 -12.289062 9.34375 -12.007812 C 9.113281 -13.832031 7.898438 -14.34375 7.476562 -14.484375 C 5.46875 -15.09375 2.289062 -13.269531 0.09375 -8.597656 C -1.589844 -5.09375 -1.914062 -0.515625 0.1875 0.699219 C 1.214844 1.308594 2.992188 1.214844 5.558594 -2.523438 C 6.683594 -4.113281 7.664062 -5.652344 8.597656 -7.148438 C 8.082031 -4.484375 7.570312 -1.683594 7.101562 1.261719 C 6.214844 6.496094 5.558594 10.886719 5.1875 14.0625 C 4.4375 20.277344 4.8125 21.121094 5.746094 21.398438 C 5.839844 21.445312 5.980469 21.445312 6.074219 21.445312 C 6.914062 21.445312 7.476562 20.371094 7.757812 19.671875 C 7.988281 19.25 7.804688 18.691406 7.335938 18.503906 C 7.101562 18.363281 6.820312 18.363281 6.589844 18.457031 C 6.683594 16.445312 7.148438 11.867188 8.878906 1.589844 C 9.71875 -3.550781 10.605469 -8.128906 11.449219 -12.148438 C 14.953125 -18.785156 16.726562 -24.390625 18.175781 -28.828125 C 18.363281 -29.390625 18.550781 -29.902344 18.691406 -30.371094 C 21.167969 -37.800781 20.230469 -38.6875 19.953125 -39.015625 Z M 4.066406 -3.550781 C 2.289062 -0.980469 1.308594 -0.746094 1.074219 -0.839844 C 0.375 -1.261719 0.140625 -4.484375 1.730469 -7.851562 C 3.316406 -11.214844 5.46875 -12.800781 6.636719 -12.800781 C 6.773438 -12.800781 6.867188 -12.800781 6.960938 -12.757812 C 7.710938 -12.570312 7.570312 -11.214844 7.523438 -10.839844 C 7.476562 -10.417969 7.710938 -10 8.128906 -9.859375 C 6.960938 -7.851562 5.605469 -5.746094 4.066406 -3.550781 Z M 17.007812 -30.933594 C 16.820312 -30.464844 16.632812 -29.949219 16.492188 -29.390625 C 15.652344 -26.867188 14.71875 -24.015625 13.457031 -20.792969 C 15.417969 -28.550781 17.195312 -33.410156 18.316406 -35.839844 C 18.128906 -34.714844 17.707031 -33.128906 17.007812 -30.933594 Z M 17.007812 -30.933594 "/></g></g></g><g fill="#000000" fill-opacity="1"><g transform="translate(367.790019, 237.374982)"><g><path d="M 22.847656 -10.28125 C 22.566406 -10.699219 22.007812 -10.792969 21.585938 -10.511719 C 17.570312 -7.898438 13.457031 -5 9.53125 -1.355469 C 10.09375 -4.8125 10.652344 -8.503906 11.167969 -12.382812 C 11.261719 -12.800781 10.980469 -13.222656 10.558594 -13.363281 C 10.1875 -13.503906 9.71875 -13.316406 9.53125 -12.941406 C 8.597656 -11.355469 6.542969 -8.082031 4.71875 -5.886719 C 4.066406 -5.09375 3.410156 -4.671875 3.082031 -4.90625 C 2.289062 -5.375 1.730469 -8.597656 3.550781 -13.035156 C 3.738281 -13.503906 3.503906 -14.015625 3.082031 -14.203125 C 2.617188 -14.390625 2.101562 -14.15625 1.914062 -13.691406 C 0 -9.019531 0.09375 -4.578125 2.195312 -3.363281 C 2.710938 -2.992188 4.207031 -2.476562 6.074219 -4.71875 C 7.054688 -5.886719 7.988281 -7.195312 8.832031 -8.457031 C 8.363281 -5.234375 7.898438 -2.148438 7.382812 0.792969 C 3.457031 4.8125 -0.234375 9.671875 -3.410156 15.839844 C -8.738281 26.074219 -9.71875 37.425781 -7.054688 40.699219 C -6.542969 41.351562 -5.886719 41.679688 -5.1875 41.679688 C -4.953125 41.679688 -4.765625 41.632812 -4.53125 41.585938 C -1.496094 40.699219 1.214844 33.96875 2.992188 28.457031 C 5.1875 21.585938 7.195312 12.617188 9.066406 1.636719 C 13.410156 -2.710938 18.035156 -6.074219 22.566406 -9.019531 C 22.988281 -9.296875 23.128906 -9.859375 22.847656 -10.28125 Z M 1.261719 27.894531 C -2.101562 38.546875 -4.53125 39.714844 -5 39.855469 C -5.1875 39.902344 -5.375 39.902344 -5.652344 39.574219 C -7.335938 37.519531 -7.476562 27.566406 -1.824219 16.632812 C 0.792969 11.632812 3.691406 7.523438 6.820312 4.019531 C 5.140625 13.691406 3.269531 21.679688 1.261719 27.894531 Z M 1.261719 27.894531 "/></g></g></g><g fill="#000000" fill-opacity="1"><g transform="translate(388.488156, 237.374982)"><g/></g></g><g fill="#000000" fill-opacity="1"><g transform="translate(402.832008, 237.374982)"><g><path d="M 42.378906 -45.417969 C 38.875 -47.800781 33.222656 -48.125 26.539062 -46.304688 C 25.746094 -46.117188 24.996094 -45.882812 24.203125 -45.605469 C 24.25 -45.789062 24.296875 -45.976562 24.34375 -46.164062 C 24.4375 -46.632812 24.109375 -47.097656 23.644531 -47.238281 C 23.175781 -47.332031 22.660156 -47.003906 22.566406 -46.539062 C 22.476562 -46.023438 22.335938 -45.464844 22.195312 -44.855469 C 17.523438 -43.035156 13.035156 -40.417969 9.53125 -37.332031 C 2.898438 -31.539062 0.699219 -25.089844 3.503906 -19.53125 C 3.691406 -19.109375 4.253906 -18.921875 4.671875 -19.15625 C 5.140625 -19.34375 5.328125 -19.90625 5.09375 -20.371094 C 3.691406 -23.128906 2.570312 -28.875 10.699219 -35.976562 C 13.738281 -38.640625 17.617188 -40.976562 21.679688 -42.707031 C 20.605469 -38.035156 19.0625 -31.679688 17.335938 -24.625 C 14.625 -13.597656 11.585938 -1.121094 9.390625 8.644531 C 8.175781 14.015625 7.335938 17.988281 6.867188 20.839844 C 6.074219 25.605469 6.261719 26.539062 7.195312 26.867188 C 7.289062 26.914062 7.429688 26.914062 7.570312 26.914062 C 8.410156 26.914062 9.066406 25.792969 10.140625 23.363281 C 10.371094 22.941406 10.140625 22.382812 9.71875 22.195312 C 9.25 22.007812 8.691406 22.195312 8.503906 22.660156 C 8.457031 22.800781 8.363281 22.941406 8.316406 23.035156 C 9.066406 17.617188 12.054688 4.765625 15.140625 -7.988281 C 16.261719 -5.605469 18.363281 -4.160156 21.121094 -3.972656 C 21.304688 -3.972656 21.539062 -3.972656 21.726562 -3.972656 C 25.277344 -3.972656 29.484375 -6.027344 33.316406 -9.671875 C 37.941406 -14.0625 41.867188 -20.511719 44.667969 -28.363281 C 48.359375 -38.640625 45.464844 -43.3125 42.378906 -45.417969 Z M 42.988281 -28.96875 C 39.574219 -19.4375 35.183594 -13.925781 32.054688 -10.933594 C 28.363281 -7.429688 24.4375 -5.558594 21.261719 -5.792969 C 18.597656 -5.933594 16.820312 -7.570312 16.261719 -10.371094 C 16.167969 -10.605469 16.027344 -10.792969 15.839844 -10.933594 C 16.960938 -15.558594 18.082031 -20.089844 19.0625 -24.203125 C 20.933594 -31.914062 22.613281 -38.734375 23.734375 -43.546875 C 24.8125 -43.921875 25.933594 -44.296875 27.007812 -44.574219 C 33.128906 -46.210938 38.359375 -45.976562 41.398438 -43.921875 C 45.976562 -40.789062 44.808594 -34.0625 42.988281 -28.96875 Z M 42.988281 -28.96875 "/></g></g></g><g fill="#000000" fill-opacity="1"><g transform="translate(444.041378, 237.374982)"><g><path d="M 20.511719 -10.558594 C 20.046875 -10.792969 19.484375 -10.605469 19.296875 -10.140625 C 13.925781 1.167969 8.832031 6.960938 7.710938 6.773438 C 7.617188 6.726562 5.980469 5.140625 11.261719 -11.074219 C 11.402344 -11.496094 11.726562 -12.476562 10.980469 -12.988281 C 10.28125 -13.550781 9.484375 -13.035156 8.175781 -12.148438 C 6.773438 -11.261719 4.859375 -10 3.363281 -10.1875 C 8.128906 -18.410156 7.664062 -20.230469 6.589844 -20.933594 C 4.90625 -21.914062 2.476562 -19.0625 1.355469 -17.429688 C -0.933594 -13.878906 -0.886719 -10.652344 1.542969 -9.019531 C 4.019531 -7.289062 7.242188 -9.390625 9.15625 -10.652344 C 9.203125 -10.699219 9.203125 -10.699219 9.25 -10.746094 C 7.429688 -5 6.261719 -0.46875 5.839844 2.664062 C 5.328125 6.121094 5.699219 7.941406 7.007812 8.457031 C 7.242188 8.503906 7.429688 8.550781 7.664062 8.550781 C 11.402344 8.550781 17.894531 -2.945312 20.933594 -9.34375 C 21.121094 -9.8125 20.933594 -10.371094 20.511719 -10.558594 Z M 1.636719 -13.785156 C 2.289062 -16.308594 4.484375 -18.644531 5.46875 -19.203125 C 5.375 -18.457031 4.859375 -16.355469 1.867188 -11.167969 C 1.542969 -11.679688 1.308594 -12.476562 1.636719 -13.785156 Z M 1.636719 -13.785156 "/></g></g></g><g fill="#000000" fill-opacity="1"><g transform="translate(462.68371, 237.374982)"><g><path d="M 16.914062 -10.140625 C 16.492188 -10.464844 15.933594 -10.371094 15.652344 -10 C 13.691406 -7.476562 10.464844 -5.375 7.988281 -5.839844 C 8.035156 -6.167969 8.082031 -6.496094 8.082031 -6.820312 C 8.410156 -12.101562 6.773438 -13.175781 5.792969 -13.363281 C 4.671875 -13.597656 3.503906 -12.757812 2.945312 -11.355469 C 2.710938 -11.449219 2.429688 -11.449219 2.195312 -11.261719 C 0.328125 -10.09375 -1.214844 -7.101562 -0.375 -3.878906 C 0.1875 -1.960938 1.496094 -0.746094 3.222656 -0.746094 C 4.859375 -0.746094 6.589844 -1.960938 7.476562 -4.113281 C 10.746094 -3.410156 14.671875 -5.839844 17.054688 -8.878906 C 17.382812 -9.296875 17.289062 -9.859375 16.914062 -10.140625 Z M 3.269531 -2.523438 C 3.222656 -2.523438 3.222656 -2.523438 3.222656 -2.523438 C 2.054688 -2.570312 1.542969 -3.691406 1.402344 -4.34375 C 0.933594 -5.933594 1.308594 -8.128906 2.617188 -9.34375 C 2.710938 -7.757812 3.597656 -6.027344 5.839844 -4.8125 C 5.1875 -3.316406 4.066406 -2.523438 3.269531 -2.523438 Z M 6.308594 -6.914062 C 6.261719 -6.820312 6.261719 -6.726562 6.261719 -6.636719 C 4.484375 -7.804688 4.207031 -9.296875 4.53125 -10.464844 C 4.765625 -11.214844 5.234375 -11.585938 5.46875 -11.585938 C 5.699219 -11.542969 6.496094 -10.652344 6.308594 -6.914062 Z M 6.308594 -6.914062 "/></g></g></g><g fill="#000000" fill-opacity="1"><g transform="translate(477.634958, 237.374982)"><g><path d="M 10 -17.335938 C 8.785156 -17.707031 5.605469 -17.476562 2.289062 -7.804688 C 4.160156 -18.363281 4.484375 -20.230469 4.4375 -20.558594 C 4.4375 -21.027344 4.019531 -21.445312 3.503906 -21.398438 C 3.039062 -21.351562 2.664062 -20.980469 2.664062 -20.511719 C 2.617188 -19.859375 1.449219 -13.550781 0.1875 -6.261719 C -0.09375 -4.671875 -0.421875 -3.039062 -0.699219 -1.355469 C -1.355469 -1.121094 -2.007812 -0.886719 -2.664062 -0.699219 C -3.128906 -0.5625 -3.410156 -0.09375 -3.269531 0.421875 C -3.128906 0.886719 -2.664062 1.167969 -2.195312 1.027344 C -1.824219 0.933594 -1.449219 0.792969 -1.074219 0.699219 C -3.082031 12.101562 -5.375 25.136719 -6.449219 32.285156 C -6.496094 32.753906 -6.167969 33.222656 -5.699219 33.269531 C -5.652344 33.269531 -5.605469 33.316406 -5.558594 33.316406 C -5.140625 33.316406 -4.71875 32.988281 -4.671875 32.566406 C -3.503906 25.652344 -0.28125 9.25 2.148438 -0.699219 C 3.597656 -1.449219 4.953125 -2.289062 6.214844 -3.269531 C 8.222656 -4.90625 10.792969 -7.523438 11.679688 -10.933594 C 12.570312 -14.0625 11.820312 -16.773438 10 -17.335938 Z M 9.953125 -11.402344 C 9.066406 -8.082031 6.121094 -5.140625 2.757812 -3.082031 C 3.175781 -4.671875 3.550781 -6.027344 3.878906 -7.007812 C 6.308594 -14.15625 8.550781 -15.605469 9.34375 -15.605469 C 9.390625 -15.605469 9.4375 -15.605469 9.484375 -15.605469 C 10.09375 -15.417969 10.605469 -13.785156 9.953125 -11.402344 Z M 9.953125 -11.402344 "/></g></g></g><g fill="#000000" fill-opacity="1"><g transform="translate(491.745202, 237.374982)"><g><path d="M 15.792969 -10.417969 C 15.371094 -10.699219 14.8125 -10.605469 14.53125 -10.1875 C 11.027344 -5.28125 8.175781 -2.195312 5.375 -0.1875 C 3.972656 0.792969 2.617188 0.980469 1.730469 0.328125 C 1.167969 -0.09375 -0.5625 -1.960938 1.449219 -8.503906 C 5.980469 -12.242188 8.457031 -15.792969 7.804688 -17.660156 C 7.570312 -18.222656 7.007812 -18.597656 6.402344 -18.597656 C 4.53125 -18.550781 1.683594 -15.324219 -0.1875 -9.296875 C -2.476562 -1.867188 -0.609375 0.839844 0.699219 1.777344 C 1.355469 2.289062 2.101562 2.523438 2.945312 2.523438 C 4.019531 2.523438 5.234375 2.101562 6.402344 1.261719 C 9.390625 -0.886719 12.335938 -4.066406 15.980469 -9.15625 C 16.261719 -9.578125 16.167969 -10.140625 15.792969 -10.417969 Z M 6.027344 -16.632812 C 5.839844 -15.886719 5.046875 -14.390625 2.851562 -12.148438 C 4.066406 -14.859375 5.375 -16.167969 6.027344 -16.632812 Z M 6.027344 -16.632812 "/></g></g></g><g fill="#000000" fill-opacity="1"><g transform="translate(505.341491, 237.374982)"><g><path d="M 20.511719 -10.558594 C 20.046875 -10.792969 19.484375 -10.605469 19.296875 -10.140625 C 13.925781 1.167969 8.832031 6.960938 7.710938 6.773438 C 7.617188 6.726562 5.980469 5.140625 11.261719 -11.074219 C 11.402344 -11.496094 11.726562 -12.476562 10.980469 -12.988281 C 10.28125 -13.550781 9.484375 -13.035156 8.175781 -12.148438 C 6.773438 -11.261719 4.859375 -10 3.363281 -10.1875 C 8.128906 -18.410156 7.664062 -20.230469 6.589844 -20.933594 C 4.90625 -21.914062 2.476562 -19.0625 1.355469 -17.429688 C -0.933594 -13.878906 -0.886719 -10.652344 1.542969 -9.019531 C 4.019531 -7.289062 7.242188 -9.390625 9.15625 -10.652344 C 9.203125 -10.699219 9.203125 -10.699219 9.25 -10.746094 C 7.429688 -5 6.261719 -0.46875 5.839844 2.664062 C 5.328125 6.121094 5.699219 7.941406 7.007812 8.457031 C 7.242188 8.503906 7.429688 8.550781 7.664062 8.550781 C 11.402344 8.550781 17.894531 -2.945312 20.933594 -9.34375 C 21.121094 -9.8125 20.933594 -10.371094 20.511719 -10.558594 Z M 1.636719 -13.785156 C 2.289062 -16.308594 4.484375 -18.644531 5.46875 -19.203125 C 5.375 -18.457031 4.859375 -16.355469 1.867188 -11.167969 C 1.542969 -11.679688 1.308594 -12.476562 1.636719 -13.785156 Z M 1.636719 -13.785156 "/></g></g></g><g fill="#000000" fill-opacity="1"><g transform="translate(523.983823, 237.374982)"><g><path d="M 39.4375 -27.566406 C 38.828125 -28.410156 36.117188 -28.921875 7.101562 -28.269531 C 8.035156 -32.054688 8.878906 -35.464844 9.625 -38.222656 C 9.765625 -38.734375 9.484375 -39.203125 9.019531 -39.34375 C 8.550781 -39.484375 8.035156 -39.203125 7.898438 -38.734375 C 7.101562 -35.792969 6.214844 -32.242188 5.234375 -28.222656 C 2.664062 -28.175781 -0.140625 -28.128906 -3.175781 -28.035156 C -7.335938 -27.941406 -10.605469 -27.847656 -11.867188 -27.847656 C -12.382812 -27.847656 -12.800781 -27.425781 -12.800781 -26.960938 C -12.800781 -26.445312 -12.382812 -26.027344 -11.867188 -26.027344 C -10.558594 -26.074219 -7.289062 -26.121094 -3.128906 -26.257812 C -0.933594 -26.304688 1.777344 -26.351562 4.8125 -26.445312 C 2.804688 -17.941406 0.515625 -7.757812 -1.542969 2.195312 C -3.039062 9.484375 -4.253906 15.792969 -5.046875 20.417969 C -5.46875 22.847656 -5.746094 24.765625 -5.886719 26.074219 C -6.074219 27.847656 -6.167969 28.875 -5.28125 29.203125 C -5.140625 29.203125 -5.046875 29.25 -4.90625 29.25 C -4.113281 29.25 -3.691406 28.128906 -3.316406 27.101562 C -3.128906 26.632812 -3.363281 26.121094 -3.832031 25.933594 C -3.925781 25.933594 -3.972656 25.886719 -4.066406 25.886719 C -3.597656 22.242188 -2.195312 14.0625 0.515625 1.167969 C 2.523438 -8.597656 4.71875 -18.363281 6.683594 -26.492188 C 19.53125 -26.773438 36.210938 -27.007812 38.128906 -26.351562 C 38.453125 -26.074219 38.875 -26.074219 39.25 -26.304688 C 39.621094 -26.585938 39.714844 -27.148438 39.4375 -27.566406 Z M 39.4375 -27.566406 "/></g></g></g><g fill="#000000" fill-opacity="1"><g transform="translate(530.197919, 237.374982)"><g><path d="M 13.644531 -10.605469 C 13.222656 -10.886719 12.710938 -10.746094 12.429688 -10.328125 C 9.296875 -5.28125 4.066406 -0.515625 2.476562 -1.167969 C 2.289062 -1.261719 0.792969 -2.148438 2.851562 -10.046875 C 2.945312 -10.558594 2.664062 -11.027344 2.195312 -11.167969 C 1.683594 -11.261719 1.214844 -10.980469 1.074219 -10.511719 C -0.609375 -3.925781 -0.375 -0.421875 1.730469 0.46875 C 2.054688 0.609375 2.382812 0.652344 2.710938 0.652344 C 6.214844 0.652344 11.585938 -5.605469 13.972656 -9.390625 C 14.203125 -9.8125 14.0625 -10.371094 13.644531 -10.605469 Z M 2.617188 -14.390625 C 5 -14.25 4.953125 -17.242188 3.039062 -16.585938 C 2.054688 -16.308594 0.792969 -14.484375 2.617188 -14.390625 Z M 2.617188 -14.390625 "/></g></g></g><g fill="#000000" fill-opacity="1"><g transform="translate(542.018749, 237.374982)"><g><path d="M 15.792969 -10.417969 C 15.371094 -10.699219 14.8125 -10.605469 14.53125 -10.1875 C 11.027344 -5.28125 8.175781 -2.195312 5.375 -0.1875 C 3.972656 0.792969 2.617188 0.980469 1.730469 0.328125 C 1.167969 -0.09375 -0.5625 -1.960938 1.449219 -8.503906 C 5.980469 -12.242188 8.457031 -15.792969 7.804688 -17.660156 C 7.570312 -18.222656 7.007812 -18.597656 6.402344 -18.597656 C 4.53125 -18.550781 1.683594 -15.324219 -0.1875 -9.296875 C -2.476562 -1.867188 -0.609375 0.839844 0.699219 1.777344 C 1.355469 2.289062 2.101562 2.523438 2.945312 2.523438 C 4.019531 2.523438 5.234375 2.101562 6.402344 1.261719 C 9.390625 -0.886719 12.335938 -4.066406 15.980469 -9.15625 C 16.261719 -9.578125 16.167969 -10.140625 15.792969 -10.417969 Z M 6.027344 -16.632812 C 5.839844 -15.886719 5.046875 -14.390625 2.851562 -12.148438 C 4.066406 -14.859375 5.375 -16.167969 6.027344 -16.632812 Z M 6.027344 -16.632812 "/></g></g></g><g fill="#000000" fill-opacity="1"><g transform="translate(555.615038, 237.374982)"><g><path d="M 20.792969 -10.699219 C 20.417969 -11.027344 19.859375 -10.980469 19.53125 -10.605469 C 15.839844 -6.355469 10.046875 0.421875 9.113281 1.636719 C 8.832031 1.960938 8.550781 2.335938 8.269531 2.710938 C 7.898438 1.777344 7.429688 0.886719 6.820312 -0.046875 C 4.578125 -3.503906 2.570312 -6.773438 2.664062 -9.066406 C 2.757812 -10.886719 3.691406 -12.476562 5.234375 -13.410156 C 6.496094 -14.15625 7.898438 -14.296875 8.972656 -13.785156 C 9.390625 -13.597656 9.953125 -13.785156 10.140625 -14.25 C 10.371094 -14.671875 10.1875 -15.230469 9.71875 -15.417969 C 8.128906 -16.167969 6.074219 -15.980469 4.296875 -14.953125 C 2.242188 -13.691406 1.027344 -11.585938 0.886719 -9.15625 C 0.746094 -6.308594 2.804688 -2.898438 5.328125 0.933594 C 6.121094 2.148438 6.636719 3.316406 6.960938 4.4375 C 3.316406 9.390625 -0.609375 15.746094 1.402344 17.707031 C 1.730469 18.035156 2.148438 18.175781 2.570312 18.175781 C 3.316406 18.175781 4.160156 17.800781 5.046875 17.101562 C 7.570312 15 10.1875 10.234375 8.925781 4.8125 C 9.4375 4.160156 9.953125 3.457031 10.511719 2.757812 C 11.449219 1.589844 17.242188 -5.1875 20.886719 -9.4375 C 21.214844 -9.8125 21.167969 -10.371094 20.792969 -10.699219 Z M 5.605469 13.738281 C 4.34375 15.605469 3.082031 16.355469 2.664062 16.402344 C 2.476562 15.746094 3.082031 13.035156 7.429688 6.867188 C 7.617188 10.234375 6.214844 12.800781 5.605469 13.738281 Z M 5.605469 13.738281 "/></g></g></g></svg>